<?xml version="1.0" encoding="UTF-8"?>
<svg version="1.1" xmlns="http://www.w3.org/2000/svg" width="463" height="317">
<path d="M0 0 C0.75144287 -0.01442139 1.50288574 -0.02884277 2.27709961 -0.04370117 C9.27717731 0.08117709 14.14695482 2.74380321 19.875 6.5625 C19.875 7.2225 19.875 7.8825 19.875 8.5625 C20.865 8.8925 21.855 9.2225 22.875 9.5625 C24.2265625 11.26953125 24.2265625 11.26953125 25.5 13.375 C25.92539063 14.06207031 26.35078125 14.74914063 26.7890625 15.45703125 C30.48820285 22.62910552 29.97295778 32.84276193 27.8125 40.4375 C26.19535817 44.60475011 23.56212682 47.63143842 20.49609375 50.8359375 C18.68262467 52.67216051 18.68262467 52.67216051 16.875 55.5625 C14.7109375 56.73046875 14.7109375 56.73046875 12.25 57.75 C11.43273437 58.09417969 10.61546875 58.43835938 9.7734375 58.79296875 C9.14695313 59.04691406 8.52046875 59.30085938 7.875 59.5625 C7.88023682 60.57151367 7.88547363 61.58052734 7.89086914 62.62011719 C7.90899262 66.36978262 7.92045888 70.11944418 7.92993164 73.86914062 C7.93495505 75.49089204 7.94177494 77.11263895 7.95043945 78.734375 C7.96259229 81.06771969 7.96824828 83.4010044 7.97265625 85.734375 C7.97781754 86.45743835 7.98297882 87.18050171 7.98829651 87.92547607 C7.98866918 91.2826275 7.92407619 94.35356108 6.875 97.5625 C7.68904297 96.82193359 7.68904297 96.82193359 8.51953125 96.06640625 C9.23496094 95.42574219 9.95039063 94.78507812 10.6875 94.125 C11.74904297 93.16787109 11.74904297 93.16787109 12.83203125 92.19140625 C14.875 90.5625 14.875 90.5625 17.875 89.5625 C18.184375 88.923125 18.49375 88.28375 18.8125 87.625 C20.12125707 85.08447156 21.32966064 84.70918824 23.875 83.5625 C23.71451172 82.18578125 23.71451172 82.18578125 23.55078125 80.78125 C22.67817202 71.84873406 22.33281354 65.99023307 28.125 58.75 C33.20825147 54.70650452 38.15006655 52.89260476 44.609375 53.15625 C50.46063105 54.20544074 54.57973192 57.86872848 58.3125 62.3125 C61.21884553 66.54859814 62.41421855 70.42194979 61.875 75.5625 C60.18458425 81.02686719 57.11334123 84.75886044 52.875 88.5625 C52.38 89.119375 51.885 89.67625 51.375 90.25 C48.44455465 92.81413968 45.62227525 93.56812566 41.76171875 93.5390625 C40.70597656 93.42304687 39.65023437 93.30703125 38.5625 93.1875 C37.49386719 93.07664062 36.42523438 92.96578125 35.32421875 92.8515625 C34.51597656 92.75617188 33.70773438 92.66078125 32.875 92.5625 C32.875 93.2225 32.875 93.8825 32.875 94.5625 C31.37890625 96 31.37890625 96 29.4375 97.5625 C26.72311762 99.70775044 26.72311762 99.70775044 24.875 102.5625 C24.215 102.5625 23.555 102.5625 22.875 102.5625 C22.545 103.5525 22.215 104.5425 21.875 105.5625 C20.11676601 107.14575725 18.29467853 108.65906064 16.4375 110.125 C11.03371391 113.79300517 11.03371391 113.79300517 8.5402832 119.29296875 C8.48360474 121.00419922 8.48360474 121.00419922 8.42578125 122.75 C8.36100586 124.63525391 8.36100586 124.63525391 8.29492188 126.55859375 C8.26869751 127.54641846 8.26869751 127.54641846 8.24194336 128.55419922 C8.18845191 130.52738612 8.11684988 132.50005536 8.04492188 134.47265625 C7.82395798 141.59421407 7.89755302 148.49912118 8.875 155.5625 C12.16196233 156.36203138 13.58523192 156.65908936 16.875 155.5625 C18.46058381 153.92747064 18.46058381 153.92747064 19.9375 152 C21.47265625 150.05859375 21.47265625 150.05859375 22.875 148.5625 C23.535 148.5625 24.195 148.5625 24.875 148.5625 C24.875 147.9025 24.875 147.2425 24.875 146.5625 C27.40046859 143.81419594 30.04562958 141.42321054 32.9375 139.0625 C35.86069987 136.74023025 35.86069987 136.74023025 37.75 134.1875 C40.17200078 131.19561668 42.87791529 128.88142975 45.79296875 126.3828125 C50.80418035 122.00152806 55.28390195 117.21225797 59.5390625 112.1015625 C60.875 110.5625 60.875 110.5625 62.9375 108.75 C65.55207859 105.79805643 66.93477351 102.48902236 68.53125 98.90234375 C69.875 96.5625 69.875 96.5625 71.93457031 95.44042969 C74.27156925 93.57293592 74.27156925 93.57293592 74.32910156 89.82543945 C74.32846919 88.27540909 74.30592222 86.72528783 74.265625 85.17578125 C74.25713531 83.95026802 74.25713531 83.95026802 74.24847412 82.69999695 C74.22608697 80.09106797 74.17588846 77.48351364 74.125 74.875 C74.10493792 73.10613963 74.08668664 71.33725773 74.0703125 69.56835938 C74.0262148 65.23254344 73.95717294 60.89775475 73.875 56.5625 C72.91440674 56.26520996 71.95381348 55.96791992 70.96411133 55.66162109 C67.74917716 54.51773161 67.02238859 54.13300209 65.5625 51.1875 C62.79543011 45.24342395 61.67981166 39.66028861 63.55859375 33.21875 C66.02345287 27.08217128 69.04066046 23.82173741 74.7578125 20.453125 C79.7742747 18.34287891 85.37819423 18.96377769 90.3125 20.9375 C92.18151854 22.12273127 94.03355343 23.33486895 95.875 24.5625 C95.875 25.2225 95.875 25.8825 95.875 26.5625 C96.535 26.5625 97.195 26.5625 97.875 26.5625 C101.52287652 31.92031864 103.02815072 36.0649392 101.875 42.5625 C100.76465363 45.44365739 99.43669816 47.87833129 97.875 50.5625 C97.215 50.5625 96.555 50.5625 95.875 50.5625 C95.875 51.2225 95.875 51.8825 95.875 52.5625 C95.215 52.5625 94.555 52.5625 93.875 52.5625 C93.545 53.5525 93.215 54.5425 92.875 55.5625 C91.39 56.0575 91.39 56.0575 89.875 56.5625 C89.07104975 60.78532518 88.75688637 64.75863764 88.77734375 69.0546875 C88.78056641 70.25351563 88.78378906 71.45234375 88.78710938 72.6875 C88.79548828 73.925 88.80386719 75.1625 88.8125 76.4375 C88.81926758 78.32855469 88.81926758 78.32855469 88.82617188 80.2578125 C88.8379203 83.35939545 88.85585465 86.46095388 88.875 89.5625 C95.145 89.5625 101.415 89.5625 107.875 89.5625 C108.205 86.9225 108.535 84.2825 108.875 81.5625 C111.70096847 73.78805456 117.15700968 67.91801068 124.51953125 64.2421875 C133.06541905 60.82383238 140.08473867 60.45610348 148.72265625 63.62890625 C151.9489152 65.02831803 154.88289904 66.71631004 157.875 68.5625 C157.875 69.2225 157.875 69.8825 157.875 70.5625 C158.535 70.5625 159.195 70.5625 159.875 70.5625 C161.34765625 72.64453125 161.34765625 72.64453125 162.9375 75.375 C163.46472656 76.26832031 163.99195313 77.16164063 164.53515625 78.08203125 C166.8867391 82.4355447 167.06642907 85.9120653 167.125 90.8125 C167.15078125 92.09640625 167.1765625 93.3803125 167.203125 94.703125 C166.59620918 101.84161113 163.49686885 106.63419642 158.6875 111.75 C157.9615564 112.5380603 157.9615564 112.5380603 157.22094727 113.34204102 C154.47516257 116.21747643 151.94428959 118.37700245 148.3125 120 C144.70106796 121.2260571 144.70106796 121.2260571 143.375 124.3125 C143.21 125.055 143.045 125.7975 142.875 126.5625 C142.215 126.5625 141.555 126.5625 140.875 126.5625 C140.875 127.2225 140.875 127.8825 140.875 128.5625 C138.895 128.8925 136.915 129.2225 134.875 129.5625 C134.545 128.9025 134.215 128.2425 133.875 127.5625 C135.3125 124.9375 135.3125 124.9375 136.875 122.5625 C135.699375 122.129375 134.52375 121.69625 133.3125 121.25 C116.54539902 114.90329805 116.54539902 114.90329805 111.875 105.5625 C105.935 105.2325 99.995 104.9025 93.875 104.5625 C93.978125 106.439375 94.08125 108.31625 94.1875 110.25 C94.1875 116.125 94.1875 116.125 91.6875 119.625 C90.759375 120.264375 89.83125 120.90375 88.875 121.5625 C87.6684375 122.4596875 87.6684375 122.4596875 86.4375 123.375 C82.19311678 125.3419093 78.26842363 124.91432265 73.875 123.5625 C73.215 124.5525 72.555 125.5425 71.875 126.5625 C71.215 126.5625 70.555 126.5625 69.875 126.5625 C69.875 127.2225 69.875 127.8825 69.875 128.5625 C68.37890625 130 68.37890625 130 66.4375 131.5625 C63.72311762 133.70775044 63.72311762 133.70775044 61.875 136.5625 C61.215 136.5625 60.555 136.5625 59.875 136.5625 C59.875 137.2225 59.875 137.8825 59.875 138.5625 C55.91939923 142.91366084 51.39367125 146.69325533 46.984375 150.57421875 C44.81986736 152.38600446 44.81986736 152.38600446 43.875 154.5625 C44.53469284 154.48818253 45.19438568 154.41386505 45.87406921 154.33729553 C52.78778377 153.62460137 59.51657449 153.53529425 66.45703125 153.74609375 C68.6269135 153.78791621 70.79683852 153.82756681 72.96679688 153.86523438 C76.342901 153.92711113 79.71665208 154.00095132 83.09155273 154.11108398 C86.38044495 154.21409233 89.66687539 154.26581582 92.95703125 154.30859375 C93.96337112 154.35302109 94.969711 154.39744843 96.00654602 154.44322205 C101.37231148 154.51952911 101.37231148 154.51952911 105.80062866 151.82717896 C107.32269379 149.80246641 108.60133693 147.74891503 109.875 145.5625 C114.52200919 140.18175252 120.03448395 136.53743453 127.2421875 135.99609375 C128.74456195 135.96978822 130.24766278 135.97164794 131.75 136 C132.53358887 136.00515625 133.31717773 136.0103125 134.12451172 136.015625 C140.56491142 136.21817844 145.55670618 137.82098676 150.875 141.5625 C150.875 142.2225 150.875 142.8825 150.875 143.5625 C151.47957031 143.82546875 152.08414062 144.0884375 152.70703125 144.359375 C156.54318005 146.48826479 158.26455581 149.54840776 159.875 153.5625 C161.85947044 164.50252936 161.06875241 172.82044436 154.8984375 182.09375 C154.56070312 182.5784375 154.22296875 183.063125 153.875 183.5625 C154.679375 183.376875 155.48375 183.19125 156.3125 183 C157.5809375 182.7834375 157.5809375 182.7834375 158.875 182.5625 C159.205 182.8925 159.535 183.2225 159.875 183.5625 C159.5625 187.0625 159.5625 187.0625 158.875 190.5625 C156.46954362 191.76522819 154.92503047 191.66321472 152.25 191.625 C151.43273437 191.61597656 150.61546875 191.60695312 149.7734375 191.59765625 C148.83371094 191.58025391 148.83371094 191.58025391 147.875 191.5625 C148.535 191.2325 149.195 190.9025 149.875 190.5625 C149.875 189.9025 149.875 189.2425 149.875 188.5625 C145.83979403 190.15212659 141.85688718 191.84482318 137.875 193.5625 C137.875 194.2225 137.875 194.8825 137.875 195.5625 C136.225 195.8925 134.575 196.2225 132.875 196.5625 C132.545 195.9025 132.215 195.2425 131.875 194.5625 C132.205 193.9025 132.535 193.2425 132.875 192.5625 C132.00617188 192.45292969 131.13734375 192.34335938 130.2421875 192.23046875 C120.04804659 190.82791916 114.73112169 188.86909259 107.70703125 181.3046875 C106.00083626 178.75085192 105.18580889 176.78199632 104.26049805 173.89111328 C103.86763863 172.67526047 103.86763863 172.67526047 103.46684265 171.43484497 C103.27153458 170.81697113 103.0762265 170.19909729 102.875 169.5625 C93.53910345 169.66997572 84.20328751 169.78260393 74.86753368 169.90183926 C70.53272735 169.95704043 66.19791423 170.01045598 61.86303711 170.05981445 C57.68087681 170.10749934 53.49879857 170.15984371 49.31673622 170.21544075 C47.71994376 170.2358456 46.12312882 170.25456177 44.52629662 170.27157402 C42.29243201 170.29565944 40.05872224 170.32570828 37.82495117 170.35717773 C36.55254074 170.37272202 35.28013031 170.3882663 33.96916199 170.40428162 C30.83851057 170.42612536 30.83851057 170.42612536 27.875 171.5625 C27.545 172.2225 27.215 172.8825 26.875 173.5625 C26.215 173.5625 25.555 173.5625 24.875 173.5625 C24.58625 174.15546875 24.2975 174.7484375 24 175.359375 C23.04723013 177.22521599 21.97299762 179.02825387 20.875 180.8125 C15.47181151 191.69008663 16.50420496 206.56900346 16.5625 218.5 C16.56365814 219.23930756 16.56481628 219.97861511 16.56600952 220.74032593 C16.11601805 240.04533002 16.11601805 240.04533002 22.875 257.5625 C23.535 257.8925 24.195 258.2225 24.875 258.5625 C24.875 259.2225 24.875 259.8825 24.875 260.5625 C34.31622821 265.60659898 44.12256895 267.15238882 54.6875 267.25 C56.57359985 267.29495605 56.57359985 267.29495605 58.49780273 267.34082031 C66.78495953 267.53235225 75.07339166 267.58067424 83.36238098 267.63313293 C88.44285135 267.66947023 93.5230693 267.72402837 98.60336304 267.77944946 C102.40412653 267.81221232 106.2042399 267.81596716 110.00512695 267.8190918 C112.37973331 267.84157671 114.75432779 267.86536507 117.12890625 267.890625 C118.22458923 267.88349991 119.32027222 267.87637482 120.44915771 267.86903381 C128.86063386 268.00463726 128.86063386 268.00463726 132.57006836 270.94433594 C134.875 273.5625 134.875 273.5625 135.5 276.125 C134.64694057 279.45193176 133.66594656 280.53906375 130.875 282.5625 C125.28491432 284.36269708 119.71110299 285.04913909 113.875 285.5625 C113.545 286.5525 113.215 287.5425 112.875 288.5625 C110.79195462 288.61668326 108.70850232 288.65537551 106.625 288.6875 C105.46484375 288.71070313 104.3046875 288.73390625 103.109375 288.7578125 C100.04713954 288.5728949 98.43297249 288.17073023 95.875 286.5625 C96.865 286.2325 97.855 285.9025 98.875 285.5625 C94.6391643 285.53780679 90.40336658 285.51964329 86.16748047 285.50756836 C84.7260668 285.50253526 83.28465824 285.49570827 81.84326172 285.48706055 C79.77309915 285.47495017 77.70300399 285.46926153 75.6328125 285.46484375 C73.76326904 285.45698853 73.76326904 285.45698853 71.85595703 285.44897461 C68.94728894 285.35433413 68.94728894 285.35433413 66.875 286.5625 C66.875 287.2225 66.875 287.8825 66.875 288.5625 C66.19622803 288.6126123 65.51745605 288.66272461 64.81811523 288.71435547 C47.49190698 289.98592753 47.49190698 289.98592753 30.25390625 292.09765625 C11.96747216 294.61336221 -8.01150665 296.58892904 -25.125 288.5625 C-25.125 288.2325 -25.125 287.9025 -25.125 287.5625 C-22.815 287.2325 -20.505 286.9025 -18.125 286.5625 C-29.96480799 285.71909606 -41.75419752 285.40703339 -53.62241364 285.36326981 C-56.59084694 285.35125812 -59.55914867 285.33176576 -62.52752686 285.31015015 C-70.9523893 285.24919069 -79.37722369 285.19425369 -87.80224609 285.16113281 C-92.98963855 285.14020984 -98.17676533 285.1049618 -103.36400604 285.06037521 C-105.33034911 285.04623674 -107.29673886 285.03749765 -109.26313019 285.03432083 C-112.00025025 285.02942005 -114.73665743 285.00629539 -117.47363281 284.97900391 C-118.27986588 284.98201004 -119.08609894 284.98501617 -119.91676331 284.9881134 C-124.4687977 284.92060526 -127.54948856 284.47571442 -131.125 281.5625 C-132.25 278.6875 -132.25 278.6875 -132.125 275.5625 C-128.88983997 271.11415496 -125.40937497 269.44177844 -120.125 268.5625 C-116.0388891 268.29860826 -111.96081587 268.24294558 -107.86676407 268.22697449 C-105.77784971 268.21857935 -103.68935097 268.1979715 -101.60055542 268.17443848 C-97.15043361 268.12645214 -92.70026832 268.09347411 -88.25 268.0625 C-54.3409882 270.14223619 -54.3409882 270.14223619 -25.25 257 C-17.0475451 246.38064824 -18.69250145 231.90513691 -18.78881836 219.21655273 C-18.81251672 215.87264038 -18.80935029 212.52952262 -18.80273438 209.18554688 C-18.80830936 207.03645363 -18.81541811 204.8873637 -18.82421875 202.73828125 C-18.82285164 201.2567028 -18.82285164 201.2567028 -18.82145691 199.74519348 C-18.91144402 190.85596005 -19.74412747 183.85271439 -25.125 176.5625 C-25.455 175.5725 -25.785 174.5825 -26.125 173.5625 C-26.785 173.5625 -27.445 173.5625 -28.125 173.5625 C-28.455 172.9025 -28.785 172.2425 -29.125 171.5625 C-32.20756414 170.53497862 -34.28002063 170.44741431 -37.50756836 170.46484375 C-39.16090431 170.46979858 -39.16090431 170.46979858 -40.84764099 170.47485352 C-42.0413179 170.48315186 -43.23499481 170.4914502 -44.46484375 170.5 C-46.3135482 170.50567993 -46.3135482 170.50567993 -48.19960022 170.51147461 C-52.15392988 170.52371446 -56.10820648 170.54206624 -60.0625 170.5625 C-65.23827982 170.58924328 -70.41402011 170.60920821 -75.58984375 170.625 C-77.353032 170.63744751 -77.353032 170.63744751 -79.15184021 170.65014648 C-86.528741 170.67169937 -93.78506084 170.30208563 -101.125 169.5625 C-101.228125 170.449375 -101.33125 171.33625 -101.4375 172.25 C-102.89011917 179.24898327 -107.76099829 184.94072254 -113.4375 189.125 C-121.12194086 193.69938048 -129.37499293 192.99734796 -137.9375 191.47265625 C-145.020551 189.45016742 -150.35589267 185.45797685 -154.125 179.125 C-158.14746855 170.68066886 -159.34804115 162.97290746 -156.21875 153.94921875 C-152.87323699 146.50093135 -148.01140437 142.21232116 -141.375 137.6875 C-133.70803388 135.03355019 -124.74262312 134.45007563 -117.125 137.5625 C-110.40681495 141.4936119 -105.60404038 146.60441924 -102.125 153.5625 C-83.645 153.5625 -65.165 153.5625 -46.125 153.5625 C-49.25675686 147.78989701 -49.25675686 147.78989701 -52.125 146.5625 C-52.125 145.9025 -52.125 145.2425 -52.125 144.5625 C-52.9603125 144.2221875 -52.9603125 144.2221875 -53.8125 143.875 C-56.80461603 142.17677198 -58.74100535 140.05485804 -61.125 137.5625 C-62.51646549 136.14154295 -63.91255453 134.72510321 -65.3125 133.3125 C-65.98667969 132.62671875 -66.66085938 131.9409375 -67.35546875 131.234375 C-69.03298995 129.48800889 -69.03298995 129.48800889 -71.125 128.5625 C-71.125 127.9025 -71.125 127.2425 -71.125 126.5625 C-74.69489128 124.57922707 -77.99464585 123.67730951 -82.08203125 123.45703125 C-85.89567108 123.1952415 -87.6038107 123.04254278 -90.5 120.375 C-93.54244724 115.10922594 -94.125 111.74943682 -94.125 105.5625 C-100.065 105.2325 -106.005 104.9025 -112.125 104.5625 C-112.62 106.5425 -112.62 106.5425 -113.125 108.5625 C-116.67203691 114.22509107 -121.75191026 118.52853519 -128.125 120.5625 C-138.69018967 121.76700045 -148.8806615 120.83590359 -157.4921875 114.20703125 C-163.58777951 108.06769097 -167.01486515 99.87816215 -167.5 91.3125 C-167.25195081 82.74750743 -163.86349601 75.35777147 -157.984375 69.21484375 C-150.75556105 62.79091874 -142.74850642 61.14763641 -133.31640625 61.30859375 C-126.08913146 61.88359113 -119.4607089 64.9005604 -114.52734375 70.31640625 C-109.74420277 76.3217749 -107.125 81.73661995 -107.125 89.5625 C-101.515 89.5625 -95.905 89.5625 -90.125 89.5625 C-89.19712354 85.85099415 -89.00945767 83.05747358 -89.02734375 79.265625 C-89.03056641 78.06035156 -89.03378906 76.85507813 -89.03710938 75.61328125 C-89.04548828 74.35902344 -89.05386719 73.10476562 -89.0625 71.8125 C-89.06701172 70.54277344 -89.07152344 69.27304688 -89.07617188 67.96484375 C-89.08795444 64.83068164 -89.10440584 61.69661459 -89.125 58.5625 C-90.05828125 58.13710937 -90.9915625 57.71171875 -91.953125 57.2734375 C-96.83073657 54.64241057 -98.86738704 50.89806692 -101.4375 46.125 C-103.3829726 38.87369303 -101.9972874 34.19938591 -98.484375 27.765625 C-95.69424657 23.24369272 -93.11505965 21.24225247 -88.125 19.5625 C-82.40912901 18.87514842 -76.15628222 18.28618537 -71.125 21.5 C-66.73832604 25.39440381 -63.77409227 30.24843538 -62.64453125 36.015625 C-62.26009749 42.62372956 -64.30927129 48.19221514 -68.125 53.5625 C-68.9718335 54.09705811 -69.81866699 54.63161621 -70.69116211 55.18237305 C-73.4929706 57.44649283 -73.4929706 57.44649283 -73.70849609 61.33374023 C-73.71444767 62.84631219 -73.69277723 64.35916011 -73.6484375 65.87109375 C-73.64373444 66.67482925 -73.63903137 67.47856476 -73.63418579 68.30665588 C-73.61286812 70.87198117 -73.55630512 73.43522956 -73.5 76 C-73.48348759 77.7219856 -73.46914088 79.44399343 -73.45703125 81.16601562 C-73.49724225 90.43354157 -73.49724225 90.43354157 -72.125 99.5625 C-71.465 99.5625 -70.805 99.5625 -70.125 99.5625 C-68.64453125 101.25 -68.64453125 101.25 -66.9375 103.5625 C-60.83216394 111.87424943 -60.83216394 111.87424943 -53.125 118.5625 C-53.125 119.2225 -53.125 119.8825 -53.125 120.5625 C-52.465 120.5625 -51.805 120.5625 -51.125 120.5625 C-51.125 121.2225 -51.125 121.8825 -51.125 122.5625 C-49.64 123.0575 -49.64 123.0575 -48.125 123.5625 C-48.125 124.2225 -48.125 124.8825 -48.125 125.5625 C-47.568125 125.81 -47.01125 126.0575 -46.4375 126.3125 C-41.66212571 128.8937834 -37.78524314 132.58852174 -34.125 136.5625 C-34.125 137.2225 -34.125 137.8825 -34.125 138.5625 C-33.5475 138.81 -32.97 139.0575 -32.375 139.3125 C-29.79560021 140.74549988 -28.06378408 142.34674676 -26.125 144.5625 C-26.125 145.2225 -26.125 145.8825 -26.125 146.5625 C-25.568125 146.789375 -25.01125 147.01625 -24.4375 147.25 C-21.48323409 148.92674552 -19.45652149 151.10826685 -17.125 153.5625 C-15.29234675 155.83089983 -15.29234675 155.83089983 -12.5625 155.75 C-10.17810277 155.83253323 -10.17810277 155.83253323 -9.125 154.5625 C-9.02391587 151.78592869 -8.9853041 149.03476934 -8.9921875 146.2578125 C-8.99123077 145.42289276 -8.99027405 144.58797302 -8.98928833 143.72775269 C-8.98860638 141.95733566 -8.99046172 140.18691616 -8.99462891 138.41650391 C-8.99996359 135.70599735 -8.99469139 132.99565752 -8.98828125 130.28515625 C-8.98894229 128.56770797 -8.99022399 126.85025979 -8.9921875 125.1328125 C-8.98915115 123.91393845 -8.98915115 123.91393845 -8.98605347 122.67044067 C-8.99975211 119.37922069 -9.07691131 116.70676606 -10.125 113.5625 C-11.43903276 112.85855388 -12.7770257 112.19904342 -14.125 111.5625 C-17.78320411 108.84229694 -20.94313726 105.82012137 -24.125 102.5625 C-25.33199742 101.35283223 -26.54039674 100.14456207 -27.75 98.9375 C-31.125 95.5625 -31.125 95.5625 -32.5390625 93.82421875 C-34.07865477 92.33124498 -34.07865477 92.33124498 -36.359375 92.55859375 C-37.18953125 92.70425781 -38.0196875 92.84992188 -38.875 93 C-45.05454688 93.79938906 -49.06098342 92.93851105 -54.3125 89.4375 C-59.2351885 84.89754063 -61.34102816 79.77079238 -61.75 73.125 C-61.5054399 67.05316301 -59.2868956 62.92387643 -55.125 58.5625 C-52.83102754 56.84795744 -50.75217168 55.77504077 -48.125 54.5625 C-47.465 54.2325 -46.805 53.9025 -46.125 53.5625 C-39.81714112 53.01871906 -35.30089531 53.77395808 -30.125 57.5625 C-25.64239752 61.87007679 -23.39558438 66.01865228 -23.0703125 72.2421875 C-23.16050228 76.0688112 -23.5836152 79.77280639 -24.125 83.5625 C-23.51527344 83.68109375 -22.90554687 83.7996875 -22.27734375 83.921875 C-19.0117699 84.89384253 -17.4216429 87.09781006 -15.125 89.5625 C-13.7328125 90.8928125 -13.7328125 90.8928125 -12.3125 92.25 C-10.125 94.5625 -10.125 94.5625 -10.125 96.5625 C-9.465 96.5625 -8.805 96.5625 -8.125 96.5625 C-8.125 84.0225 -8.125 71.4825 -8.125 58.5625 C-11.095 57.5725 -14.065 56.5825 -17.125 55.5625 C-17.785 55.2325 -18.445 54.9025 -19.125 54.5625 C-19.125 53.9025 -19.125 53.2425 -19.125 52.5625 C-20.03378906 52.17384766 -20.03378906 52.17384766 -20.9609375 51.77734375 C-25.38612382 49.29316876 -27.44800942 44.72953358 -28.921875 40.01171875 C-31.17951592 29.47097635 -30.51802013 20.59874026 -24.6953125 11.42578125 C-23.125 9.5625 -23.125 9.5625 -20.125 8.5625 C-19.795 7.5725 -19.465 6.5825 -19.125 5.5625 C-13.47895623 0.82409447 -7.08666671 0.06624414 0 0 Z M37.875 285.5625 C37.875 285.8925 37.875 286.2225 37.875 286.5625 C40.14455186 286.78435844 42.41573755 286.98955515 44.6875 287.1875 C45.95207031 287.30351562 47.21664062 287.41953125 48.51953125 287.5390625 C52.01057941 287.87691804 52.01057941 287.87691804 54.875 285.5625 C49.265 285.5625 43.655 285.5625 37.875 285.5625 Z " fill="#381448" transform="translate(218.125,14.4375)"/>
<path d="M0 0 C4.62861028 2.85531153 7.94459188 5.4740163 9.46875 10.859375 C10.41177333 17.81823683 9.66953701 23.01485676 5.90234375 28.98046875 C3.21470357 32.50296174 0.64772505 34.46638332 -3.53125 35.859375 C-8.71722505 36.35599114 -13.12939546 36.50838173 -17.90625 34.296875 C-23.70524571 28.91209327 -26.55101718 24.0589571 -26.96875 16.109375 C-26.90275187 11.13751606 -25.59446714 8.28864899 -22.359375 4.5546875 C-16.15097876 -1.20267141 -7.98594202 -3.5986035 0 0 Z " fill="#41E2FC" transform="translate(225.53125,26.140625)"/>
<path d="M0 0 C3.31482335 2.16123703 6.08490447 4.65809018 7.86328125 8.21484375 C8.5568194 15.20967143 8.91125329 21.7454274 4.5390625 27.55859375 C0.16797142 31.87873971 -4.63071757 34.46417928 -10.82421875 34.71484375 C-15.51301703 34.40497534 -19.13222975 33.20262868 -22.54296875 29.8203125 C-26.87380675 24.84740258 -28.62062897 21.10343194 -28.44921875 14.58984375 C-27.73875809 9.19034271 -25.25721759 4.92598226 -21.19921875 1.33984375 C-13.99826031 -3.65673965 -7.74253431 -4.22456727 0 0 Z " fill="#2AD0FD" transform="translate(90.13671875,88.78515625)"/>
<path d="M0 0 C4.48960191 3.22174528 6.44489423 7.62907708 7.52734375 12.94140625 C7.95459211 18.90430726 6.24711662 22.64210952 2.8203125 27.44140625 C-0.23172012 30.84432332 -2.48530191 33.19472227 -7.1015625 33.98046875 C-18.31566698 33.87479992 -18.31566698 33.87479992 -22.98046875 29.44921875 C-27.78003343 24.1163691 -29.46098695 20.1705523 -29.29296875 13.05078125 C-28.60217466 7.29992046 -26.41767317 3.59311614 -21.91796875 0.01171875 C-14.67328155 -3.84183827 -7.32781739 -3.65749204 0 0 Z " fill="#40DFFC" transform="translate(365.98046875,89.55078125)"/>
<path d="M0 0 C3.875 1.875 3.875 1.875 5 3 C5.42299956 6.13019677 5.30513662 7.5550091 3.5 10.1875 C-2.05437429 14.21442136 -9.34271379 14.41440538 -16 15 C-16.33 15.99 -16.66 16.98 -17 18 C-19.08304538 18.05418326 -21.16649768 18.09287551 -23.25 18.125 C-24.41015625 18.14820313 -25.5703125 18.17140625 -26.765625 18.1953125 C-29.82786046 18.0103949 -31.44202751 17.60823023 -34 16 C-33.01 15.67 -32.02 15.34 -31 15 C-35.2358357 14.97530679 -39.47163342 14.95714329 -43.70751953 14.94506836 C-45.1489332 14.94003526 -46.59034176 14.93320827 -48.03173828 14.92456055 C-50.10190085 14.91245017 -52.17199601 14.90676153 -54.2421875 14.90234375 C-56.11173096 14.89448853 -56.11173096 14.89448853 -58.01904297 14.88647461 C-60.92771106 14.79183413 -60.92771106 14.79183413 -63 16 C-63 16.66 -63 17.32 -63 18 C-63.67877197 18.0501123 -64.35754395 18.10022461 -65.05688477 18.15185547 C-82.38309302 19.42342753 -82.38309302 19.42342753 -99.62109375 21.53515625 C-117.90752784 24.05086221 -137.88650665 26.02642904 -155 18 C-155 17.67 -155 17.34 -155 17 C-152.69 16.67 -150.38 16.34 -148 16 C-159.86885847 15.15841949 -171.69202244 14.83443745 -183.58910942 14.77020454 C-186.56931496 14.75349573 -189.54940899 14.73026661 -192.52955627 14.70530701 C-200.98750111 14.63524458 -209.44548146 14.57395335 -217.90356445 14.52319336 C-223.11034462 14.49149621 -228.31697697 14.4502876 -233.52363777 14.40299797 C-235.50083863 14.38697278 -237.4780731 14.37465361 -239.45532036 14.36609077 C-242.20010494 14.35400317 -244.94453569 14.32989495 -247.68920898 14.30297852 C-248.91473732 14.3020948 -248.91473732 14.3020948 -250.1650238 14.30119324 C-255.77206018 14.22793982 -255.77206018 14.22793982 -258 12 C-256.73716784 12.00184359 -255.47433569 12.00368717 -254.17323589 12.00558662 C-224.1697284 12.04893902 -194.16622902 12.08189939 -164.16269786 12.10213066 C-160.46661948 12.10463195 -156.77054117 12.10722061 -153.07446289 12.10986328 C-151.97076824 12.11065021 -151.97076824 12.11065021 -150.84477673 12.11145304 C-138.94408918 12.12014634 -127.04342103 12.13591038 -115.14274498 12.15430559 C-102.92386899 12.17303459 -90.70500313 12.18412306 -78.48611337 12.18817699 C-70.95155408 12.19091583 -63.41704964 12.199554 -55.88250724 12.21583293 C-50.0967768 12.22769368 -44.3110812 12.22890378 -38.52534103 12.22621536 C-36.15788626 12.22676434 -33.79042935 12.23072596 -31.42298698 12.23841095 C-28.18187436 12.24841349 -24.94099326 12.24594949 -21.69987488 12.24050903 C-20.7708519 12.24633472 -19.84182893 12.2521604 -18.88465375 12.25816262 C-7.60314719 12.52392154 -7.60314719 12.52392154 2 8 C2.16687448 5.41645782 2.16687448 5.41645782 2 3 C1.34 2.67 0.68 2.34 0 2 C0 1.34 0 0.68 0 0 Z M-92 15 C-92 15.33 -92 15.66 -92 16 C-89.73044814 16.22185844 -87.45926245 16.42705515 -85.1875 16.625 C-83.92292969 16.74101562 -82.65835938 16.85703125 -81.35546875 16.9765625 C-77.86442059 17.31441804 -77.86442059 17.31441804 -75 15 C-80.61 15 -86.22 15 -92 15 Z " fill="#F0EEF7" transform="translate(348,285)"/>
<path d="M0 0 C3.86453038 2.38751092 5.57220902 4.58902308 6.75 8.96484375 C7.78011619 14.55537015 7.53554436 17.82251832 4.5625 22.6875 C1.49764799 26.90347014 -1.03536511 29.04716487 -5.875 31 C-11.3116919 31.67958649 -15.0874394 30.61960863 -19.875 28 C-24.38498359 23.24623352 -26.47131304 18.97459929 -26.3203125 12.44921875 C-25.27348197 6.69165082 -21.6848376 2.32721424 -17.0625 -1.0625 C-10.85064274 -2.88951684 -5.90164194 -2.84046506 0 0 Z " fill="#37D0FB" transform="translate(358.875,163)"/>
<path d="M0 0 C4.37343916 1.9078336 6.92410743 3.31614408 9.5703125 7.36328125 C10.9044284 13.08092082 11.25756833 17.76676442 9.3203125 23.36328125 C6.70837376 27.19412474 3.64207621 30.0148994 -0.5546875 32.11328125 C-6.51763393 32.97926932 -10.9022904 32.16349236 -15.82421875 28.65625 C-19.29450883 25.56197329 -21.14645904 22.51162343 -21.9296875 17.91015625 C-22.22564066 12.47201691 -21.20204273 8.23060382 -17.5546875 4.11328125 C-12.04003299 -0.61185657 -7.12779302 -2.4740199 0 0 Z " fill="#27C7F9" transform="translate(93.5546875,161.88671875)"/>
<path d="M0 0 C5.04543683 0.10012995 8.54915424 0.36564566 12.37890625 3.765625 C17.08571048 9.25475909 19.70143074 14.54129694 19.30078125 21.87890625 C18.41638975 26.51311771 16.53942146 30.59961053 13.8125 34.4375 C12.9656665 34.97205811 12.11883301 35.50661621 11.24633789 36.05737305 C8.4445294 38.32149283 8.4445294 38.32149283 8.22900391 42.20874023 C8.22305233 43.72131219 8.24472277 45.23416011 8.2890625 46.74609375 C8.2961171 47.95169701 8.2961171 47.95169701 8.30331421 49.18165588 C8.32463188 51.74698117 8.38119488 54.31022956 8.4375 56.875 C8.45401241 58.5969856 8.46835912 60.31899343 8.48046875 62.04101562 C8.44025775 71.30854157 8.44025775 71.30854157 9.8125 80.4375 C10.4725 80.4375 11.1325 80.4375 11.8125 80.4375 C13.29296875 82.125 13.29296875 82.125 15 84.4375 C21.10533606 92.74924943 21.10533606 92.74924943 28.8125 99.4375 C28.8125 100.0975 28.8125 100.7575 28.8125 101.4375 C29.4725 101.4375 30.1325 101.4375 30.8125 101.4375 C30.8125 102.0975 30.8125 102.7575 30.8125 103.4375 C31.8025 103.7675 32.7925 104.0975 33.8125 104.4375 C33.8125 105.0975 33.8125 105.7575 33.8125 106.4375 C34.369375 106.685 34.92625 106.9325 35.5 107.1875 C40.27537429 109.7687834 44.15225686 113.46352174 47.8125 117.4375 C47.8125 118.0975 47.8125 118.7575 47.8125 119.4375 C48.67875 119.80875 48.67875 119.80875 49.5625 120.1875 C52.14189979 121.62049988 53.87371592 123.22174676 55.8125 125.4375 C55.8125 126.0975 55.8125 126.7575 55.8125 127.4375 C56.369375 127.664375 56.92625 127.89125 57.5 128.125 C60.45426591 129.80174552 62.48097851 131.98326685 64.8125 134.4375 C67.17203094 136.79703094 68.59145617 136.92891413 71.8125 137.4375 C71.8125 137.7675 71.8125 138.0975 71.8125 138.4375 C65.99924481 138.94743467 62.97618325 138.54913182 58.41015625 134.8671875 C55.42734718 132.19797449 52.62732004 129.59182839 50.3125 126.3125 C48.88261398 124.2870942 48.88261398 124.2870942 46.48828125 123.12109375 C43.53902915 121.26543294 41.7361581 119.2863143 39.5 116.625 C36.10856858 112.73050625 32.7312078 109.75287306 28.5234375 106.80078125 C25.97118587 104.76713783 24.51295734 102.19341363 22.8125 99.4375 C22.07 98.695 21.3275 97.9525 20.5625 97.1875 C17.33700959 93.96200959 14.64203592 90.46042099 11.875 86.83984375 C9.92804989 84.32984993 9.92804989 84.32984993 7.21630859 82.81811523 C4.8125 80.4375 4.8125 80.4375 4.22900391 76.59033203 C4.22304919 75.04187422 4.24474414 73.49314742 4.2890625 71.9453125 C4.29376556 71.12175262 4.29846863 70.29819275 4.30331421 69.44967651 C4.32463489 66.81976247 4.38118724 64.1918727 4.4375 61.5625 C4.4540129 59.80080042 4.46835948 58.03907911 4.48046875 56.27734375 C4.63897148 41.09823933 4.63897148 41.09823933 5.8125 36.4375 C8.25 35.3125 8.25 35.3125 10.8125 34.4375 C12.01253343 32.62148635 12.01253343 32.62148635 12.8125 30.4375 C13.31136719 29.69757812 13.81023437 28.95765625 14.32421875 28.1953125 C16.04164643 25.01288746 16.30264946 22.71677983 16.5 19.125 C16.56574219 18.05636719 16.63148438 16.98773438 16.69921875 15.88671875 C16.73660156 15.07847656 16.77398437 14.27023438 16.8125 13.4375 C16.1525 13.4375 15.4925 13.4375 14.8125 13.4375 C14.1525 12.4475 13.4925 11.4575 12.8125 10.4375 C11.15717377 9.41883771 9.48989862 8.41939187 7.8125 7.4375 C7.131875 6.633125 7.131875 6.633125 6.4375 5.8125 C3.86172532 3.63299835 1.10495655 3.77232609 -2.1875 3.4375 C-4.18847458 3.1100678 -6.18883314 2.77873581 -8.1875 2.4375 C-5.45914512 -0.29085488 -3.80968855 0.07452785 0 0 Z " fill="#63547E" transform="translate(136.1875,33.5625)"/>
<path d="M0 0 C4.14925924 1.38308641 4.97972737 3.16844846 7 7 C7.65606763 11.13322607 7.96334653 13.41203202 5.7890625 16.99609375 C3.18094577 20.18011443 0.84025491 22.4012 -3 24 C-6.97017885 23.73532141 -9.94377343 21.39182949 -13 19 C-15.3202496 15.36830497 -15.25893217 12.07362947 -14.6171875 7.93359375 C-13.60001197 4.74687294 -11.54706149 3.05007388 -9 1 C-6.01002175 -0.49498913 -3.29957225 -0.11577446 0 0 Z " fill="#32093C" transform="translate(148,194)"/>
<path d="M0 0 C0.54914063 0.74121094 1.09828125 1.48242188 1.6640625 2.24609375 C5.44360476 6.70190862 10.23089749 9.68115089 15 13 C16.546875 14.1446875 16.546875 14.1446875 18.125 15.3125 C21.90229451 17.52960765 25.81204018 18.77153178 30 20 C26.53882274 23.86054387 23.0996088 26.58820278 17.82421875 27.2890625 C12.81510605 27.47427339 9.23638308 26.88844301 5 24 C1.54492715 20.57371942 -1.66411795 16.76114803 -2.265625 11.81640625 C-2.23526799 7.43740726 -2.05598394 3.98346888 0 0 Z " fill="#037DF7" transform="translate(64,96)"/>
<path d="M0 0 C2.79659888 2.18271132 3.76939596 3.66006916 4.37109375 7.15625 C4.59184606 11.16992842 4.33600865 13.43598549 2.25 16.9375 C-1.09840046 20.00686709 -2.89273051 20.85907479 -7.4375 21.4375 C-11.91903826 20.88713565 -13.20852117 19.44829737 -16 16 C-17.46650366 13.06699268 -17.36440295 11.27962656 -17 8 C-15.63070661 5.10809466 -14.07086175 2.44420021 -12 0 C-7.81243095 -1.39585635 -4.25764725 -1.09131031 0 0 Z " fill="#3A1748" transform="translate(298,195)"/>
<path d="M0 0 C5.98751901 3.90297535 11.75118482 8.01077782 17.421875 12.36328125 C21.00137524 14.63572155 23.81656312 15 28 15 C28 14.34 28 13.68 28 13 C28.66 13 29.32 13 30 13 C28.56314642 18.02898754 26.05763331 19.95677502 22 23 C18.48304089 24.75847956 14.8382963 24.53258657 11 24 C5.8953994 22.00643444 2.06739005 18.8985897 -0.38671875 13.96875 C-1.84632329 9.28314052 -1.53416586 4.60249759 0 0 Z " fill="#0474F4" transform="translate(73,170)"/>
<path d="M0 0 C6.44774512 -1.00949545 12.84136982 0.06117198 19 2 C20.61181795 3.61181795 20.58683702 5.60788819 21 7.8125 C21.58429913 10.90289463 22.20539872 13.95639333 23 17 C23.88042969 17.02578125 24.76085937 17.0515625 25.66796875 17.078125 C26.82941406 17.13484375 27.99085938 17.1915625 29.1875 17.25 C30.91033203 17.31960937 30.91033203 17.31960937 32.66796875 17.390625 C36.50203804 18.09181469 38.09336004 19.49917365 41 22 C42.67654729 21.72057545 44.34608154 21.39171753 46 21 C47.8125 22.3125 47.8125 22.3125 49 24 C49 24.66 49 25.32 49 26 C49.556875 26.226875 50.11375 26.45375 50.6875 26.6875 C53.65837149 28.37367031 55.60822958 30.55387116 58 33 C60.09336377 34.80394037 62.20261095 36.58562789 64.328125 38.3515625 C66 40 66 40 67 43 C66.34 43 65.68 43 65 43 C64.67 43.99 64.34 44.98 64 46 C62.68 45.34 61.36 44.68 60 44 C60 43.34 60 42.68 60 42 C59.443125 41.773125 58.88625 41.54625 58.3125 41.3125 C55.32038397 39.61427198 53.38399465 37.49235804 51 35 C49.60853451 33.57904295 48.21244547 32.16260321 46.8125 30.75 C46.13832031 30.06421875 45.46414062 29.3784375 44.76953125 28.671875 C43.09201005 26.92550889 43.09201005 26.92550889 41 26 C41 25.34 41 24.68 41 24 C37.43010872 22.01672707 34.13035415 21.11480951 30.04296875 20.89453125 C26.22932892 20.6327415 24.5211893 20.48004278 21.625 17.8125 C18.58255276 12.54672594 18 9.18693682 18 3 C12.06 2.67 6.12 2.34 0 2 C-0.33 3.32 -0.66 4.64 -1 6 C-4.53934094 11.650305 -9.62888705 15.99278579 -16 18 C-29.06970509 19.28686327 -29.06970509 19.28686327 -34 16 C-28.72 16.33 -23.44 16.66 -18 17 C-18 16.34 -18 15.68 -18 15 C-17.34773438 14.72027344 -16.69546875 14.44054687 -16.0234375 14.15234375 C-8.49630714 10.69963351 -4.52934645 6.79401967 0 0 Z " fill="#4D3058" transform="translate(106,117)"/>
<path d="M0 0 C3.75258465 0.58981399 5.72247519 2.23113587 8.5625 4.6875 C15.34517928 10.25791312 22.16432784 14.87616451 31 16 C31 15.34 31 14.68 31 14 C31.66 14.33 32.32 14.66 33 15 C31.33333333 16.66666667 29.66666667 18.33333333 28 20 C27.57976562 20.54140625 27.15953125 21.0828125 26.7265625 21.640625 C22.8314994 24.70732627 16.6716772 23.51779673 12 23 C6.32950986 20.31397836 2.3989064 15.79909547 0 10 C-0.1953125 7.421875 -0.1953125 7.421875 -0.125 4.75 C-0.09792969 3.41195312 -0.09792969 3.41195312 -0.0703125 2.046875 C-0.04710937 1.37140625 -0.02390625 0.6959375 0 0 Z " fill="#0588F7" transform="translate(337,100)"/>
<path d="M0 0 C2.83439137 -0.10901505 5.66450203 -0.18777904 8.5 -0.25 C9.29148438 -0.28351562 10.08296875 -0.31703125 10.8984375 -0.3515625 C18.27656713 -0.47251544 22.96852319 1.97901546 29 6 C29 6.66 29 7.32 29 8 C29.99 8.33 30.98 8.66 32 9 C33.3515625 10.70703125 33.3515625 10.70703125 34.625 12.8125 C35.26308594 13.84310547 35.26308594 13.84310547 35.9140625 14.89453125 C39.61320285 22.06660552 39.09795778 32.28026193 36.9375 39.875 C35.32035817 44.04225011 32.68712682 47.06893842 29.62109375 50.2734375 C27.80762467 52.10966051 27.80762467 52.10966051 26 55 C23.8359375 56.16796875 23.8359375 56.16796875 21.375 57.1875 C20.55773437 57.53167969 19.74046875 57.87585938 18.8984375 58.23046875 C18.27195313 58.48441406 17.64546875 58.73835938 17 59 C17.00785522 60.51352051 17.00785522 60.51352051 17.01586914 62.05761719 C17.03399262 65.80728262 17.04545888 69.55694418 17.05493164 73.30664062 C17.05995505 74.92839204 17.06677494 76.55013895 17.07543945 78.171875 C17.08759229 80.50521969 17.09324828 82.8385044 17.09765625 85.171875 C17.10281754 85.89493835 17.10797882 86.61800171 17.11329651 87.36297607 C17.11366918 90.7201275 17.04907619 93.79106108 16 97 C16.66 97.33 17.32 97.66 18 98 C16.02 98.495 16.02 98.495 14 99 C14 85.14 14 71.28 14 57 C17.63 55.35 21.26 53.7 25 52 C27.79578179 49.43349193 27.79578179 49.43349193 29.5625 46.5 C30.18253906 45.5821875 30.80257812 44.664375 31.44140625 43.71875 C35.52091181 36.60262 35.44380611 31.02011005 34 23 C31.85231052 16.85545211 28.83413656 12.29701028 24 8 C23.67 7.34 23.34 6.68 23 6 C15.73276989 1.88500859 8.20166507 1.25710549 0 1 C0 0.67 0 0.34 0 0 Z " fill="#D2DBE5" transform="translate(209,15)"/>
<path d="M0 0 C5.36672387 2.80002984 9.82076125 6.19354067 14.48828125 10.0390625 C17.38116957 12.29758495 20.38676786 14.13465355 23.6015625 15.89453125 C24.06304687 16.25933594 24.52453125 16.62414062 25 17 C25 17.99 25 18.98 25 20 C20.43607115 22.67156811 17.28005817 23.5557956 12 23 C5.94671294 21.05063637 3.07438396 18.54867827 -0.09375 13.12890625 C-1.12332222 10.7102991 -1.23563633 8.99186617 -1.1875 6.375 C-1.17783203 5.21097656 -1.17783203 5.21097656 -1.16796875 4.0234375 C-1 2 -1 2 0 0 Z " fill="#037FF8" transform="translate(334,171)"/>
<path d="M0 0 C0.061875 0.61875 0.12375 1.2375 0.1875 1.875 C0.455625 2.57625 0.72375 3.2775 1 4 C2.63917441 4.73166214 4.31543292 5.37995486 6 6 C9.6169669 8.16737629 13.08723145 10.57178281 16.5859375 12.92382812 C20.93956556 15.80421955 25.13200297 18.1054629 30 20 C26.9579765 23.25181822 25.05930549 24.80279806 20.51171875 25.23828125 C14.46679394 25.3971382 10.63441069 25.30338136 6 21 C1.49047013 15.70406711 -0.15461026 11.75037962 -0.0625 4.75 C-0.05347656 3.85796875 -0.04445312 2.9659375 -0.03515625 2.046875 C-0.02355469 1.37140625 -0.01195312 0.6959375 0 0 Z " fill="#0391F9" transform="translate(199,37)"/>
<path d="M0 0 C6.31266025 0.17225558 10.29481461 2.85731461 14.671875 7.234375 C18.05734317 11.26469425 19.85377074 14.9084654 20.109375 20.203125 C19.42843532 26.69474998 15.59803343 31.19888026 10.875 35.4375 C10.38 35.994375 9.885 36.55125 9.375 37.125 C6.44455465 39.68913968 3.62227525 40.44312566 -0.23828125 40.4140625 C-1.29402344 40.29804687 -2.34976563 40.18203125 -3.4375 40.0625 C-4.50613281 39.95164063 -5.57476562 39.84078125 -6.67578125 39.7265625 C-7.48402344 39.63117188 -8.29226562 39.53578125 -9.125 39.4375 C-9.125 40.0975 -9.125 40.7575 -9.125 41.4375 C-10.62109375 42.875 -10.62109375 42.875 -12.5625 44.4375 C-15.27688238 46.58275044 -15.27688238 46.58275044 -17.125 49.4375 C-17.785 49.4375 -18.445 49.4375 -19.125 49.4375 C-19.455 50.4275 -19.785 51.4175 -20.125 52.4375 C-21.88323399 54.02075725 -23.70532147 55.53406064 -25.5625 57 C-30.97051201 60.66544138 -30.97051201 60.66544138 -33.44384766 66.16796875 C-33.490979 67.87919922 -33.490979 67.87919922 -33.5390625 69.625 C-33.57773438 70.88183594 -33.61640625 72.13867188 -33.65625 73.43359375 C-33.68759935 74.76822684 -33.71884872 76.10286228 -33.75 77.4375 C-33.78867188 78.72785156 -33.82734375 80.01820313 -33.8671875 81.34765625 C-34.06746458 88.37881233 -34.18085737 95.40360863 -34.125 102.4375 C-34.785 102.1075 -35.445 101.7775 -36.125 101.4375 C-36.32380513 96.03000054 -36.46840657 90.62465767 -36.56445312 85.21435547 C-36.60451363 83.37706421 -36.6589819 81.54002529 -36.72851562 79.70361328 C-37.29062181 64.46888248 -37.29062181 64.46888248 -34.43383789 59.49023438 C-32.42802387 57.4568991 -30.54542318 55.93957696 -28.125 54.4375 C-27.4861084 53.98882568 -26.8472168 53.54015137 -26.18896484 53.07788086 C-25.08297369 52.30242534 -23.96879713 51.53854249 -22.84765625 50.78515625 C-20.7855924 49.17197705 -19.19778635 47.36614036 -17.5 45.375 C-16.91476563 44.69308594 -16.32953125 44.01117188 -15.7265625 43.30859375 C-14.93378906 42.38240234 -14.93378906 42.38240234 -14.125 41.4375 C-11.875 38.9375 -11.875 38.9375 -9.125 37.4375 C-6.32680924 37.29565623 -3.57685813 37.37886133 -0.77734375 37.4765625 C4.14480658 37.40407133 6.92035584 35.27849605 10.5 32.125 C15.59572515 26.48427291 15.59572515 26.48427291 17.25 19.3125 C16.80449133 14.70891041 16.23895974 12.60449804 12.7109375 9.5859375 C11.89882813 9.00070313 11.08671875 8.41546875 10.25 7.8125 C8.75698574 6.73395027 7.28850645 5.61833049 5.875 4.4375 C5.875 3.7775 5.875 3.1175 5.875 2.4375 C1.915 2.4375 -2.045 2.4375 -6.125 2.4375 C-3.78739424 0.09989424 -3.19241017 0.09454873 0 0 Z " fill="#EBEEF6" transform="translate(260.125,67.5625)"/>
<path d="M0 0 C3.37462715 0.54723683 5.08235 1.0549 8 3 C8 3.66 8 4.32 8 5 C8.60457031 5.26296875 9.20914063 5.5259375 9.83203125 5.796875 C13.66818005 7.92576479 15.38955581 10.98590776 17 15 C18.98447044 25.94002936 18.19375241 34.25794436 12.0234375 43.53125 C11.68570313 44.0159375 11.34796875 44.500625 11 45 C11.804375 44.814375 12.60875 44.62875 13.4375 44.4375 C14.283125 44.293125 15.12875 44.14875 16 44 C16.33 44.33 16.66 44.66 17 45 C16.6875 48.5 16.6875 48.5 16 52 C13.59454362 53.20272819 12.05003047 53.10071472 9.375 53.0625 C8.14910156 53.04896484 8.14910156 53.04896484 6.8984375 53.03515625 C6.27195312 53.02355469 5.64546875 53.01195312 5 53 C5.99 52.505 5.99 52.505 7 52 C7 51.34 7 50.68 7 50 C2.96479403 51.58962659 -1.01811282 53.28232318 -5 55 C-5 55.66 -5 56.32 -5 57 C-7.475 57.495 -7.475 57.495 -10 58 C-10.33 57.34 -10.66 56.68 -11 56 C-10.67 55.34 -10.34 54.68 -10 54 C-11.37285156 53.81824219 -11.37285156 53.81824219 -12.7734375 53.6328125 C-13.96195312 53.46523437 -15.15046875 53.29765625 -16.375 53.125 C-17.55835938 52.96257812 -18.74171875 52.80015625 -19.9609375 52.6328125 C-23 52 -23 52 -25 50 C-23.74316406 50.23589844 -23.74316406 50.23589844 -22.4609375 50.4765625 C-15.17633552 51.57829688 -6.19713632 52.90082837 0.4375 49.0625 C6.62302767 44.30855733 12.0298745 38.24136339 15 31 C15.47059665 27.54942587 15.47059665 27.54942587 15.375 24 C15.38273437 22.824375 15.39046875 21.64875 15.3984375 20.4375 C14.8668625 15.85136276 13.49162686 12.55603802 10.28125 9.20703125 C9.39953125 8.51673828 9.39953125 8.51673828 8.5 7.8125 C6.19145962 5.97478036 4.05587096 4.11868924 2 2 C1.34 1.34 0.68 0.68 0 0 Z " fill="#E1E4F0" transform="translate(361,153)"/>
<path d="M0 0 C22.44 0 44.88 0 68 0 C67.67 1.32 67.34 2.64 67 4 C44.56 4 22.12 4 -1 4 C-0.67 2.68 -0.34 1.36 0 0 Z " fill="#1E012B" transform="translate(256,178)"/>
<path d="M0 0 C4.75 1.875 4.75 1.875 7 3 C7 3.66 7 4.32 7 5 C7.66 5 8.32 5 9 5 C10.47265625 7.08203125 10.47265625 7.08203125 12.0625 9.8125 C12.58972656 10.70582031 13.11695313 11.59914063 13.66015625 12.51953125 C16.0117391 16.8730447 16.19142907 20.3495653 16.25 25.25 C16.27578125 26.53390625 16.3015625 27.8178125 16.328125 29.140625 C15.72120918 36.27911113 12.62186885 41.07169642 7.8125 46.1875 C7.0865564 46.9755603 7.0865564 46.9755603 6.34594727 47.77954102 C3.60016257 50.65497643 1.06928959 52.81450245 -2.5625 54.4375 C-6.17393204 55.6635571 -6.17393204 55.6635571 -7.5 58.75 C-7.665 59.4925 -7.83 60.235 -8 61 C-8.66 61 -9.32 61 -10 61 C-10 61.66 -10 62.32 -10 63 C-12.97 63.495 -12.97 63.495 -16 64 C-16.33 63.34 -16.66 62.68 -17 62 C-15.5625 59.375 -15.5625 59.375 -14 57 C-16.64 56.01 -19.28 55.02 -22 54 C-22 53.67 -22 53.34 -22 53 C-16.39 53.33 -10.78 53.66 -5 54 C-5 53.34 -5 52.68 -5 52 C-3.53125 51.0625 -3.53125 51.0625 -1.5 50 C5.45561277 45.81180688 11.19900941 38.81131897 13.59765625 30.98828125 C15.10387679 23.54491954 14.18176966 16.45973365 10 10 C7.73448633 8.1503586 5.50382393 6.72708118 2.92578125 5.3515625 C1 4 1 4 0.23046875 1.8359375 C0.15441406 1.23007813 0.07835937 0.62421875 0 0 Z " fill="#D0D6E8" transform="translate(369,80)"/>
<path d="M0 0 C2.37040308 2.37040308 2.34465793 3.06302753 2.4375 6.3125 C2.34409821 9.93181925 2.05012496 10.92557203 -0.0625 14.0625 C-3.7146926 16.47139299 -5.70297741 16.63659594 -10 16 C-12.19592042 14.36977336 -12.90406209 13.42403091 -13.51171875 10.73828125 C-13.56972656 9.93777344 -13.62773437 9.13726562 -13.6875 8.3125 C-13.75324219 7.50425781 -13.81898438 6.69601563 -13.88671875 5.86328125 C-13.92410156 5.24839844 -13.96148437 4.63351563 -14 4 C-9.02305257 -0.16438458 -6.6214312 -1.94747977 0 0 Z " fill="#DEEDF9" transform="translate(305,45)"/>
<path d="M0 0 C0.61844188 4.63831411 0.70328061 7.66813594 -2.125 11.5 C-5 14 -5 14 -8 14.75 C-12.32300159 13.6692496 -13.66028831 11.71601268 -16 8 C-16.5625 4.875 -16.5625 4.875 -16 2 C-14.19980657 -0.37882704 -12.81161185 -1.65964664 -10.0625 -2.8125 C-5.94637487 -3.18669319 -3.41966717 -2.27977812 0 0 Z " fill="#0CBAF3" transform="translate(143,47)"/>
<path d="M0 0 C1.875 1.125 1.875 1.125 3 3 C3.52358092 7.03905284 3.39240849 9.27796838 1.4375 12.875 C-1.77753356 15.67784977 -3.75372309 16.15165275 -8 16 C-11.2752407 13.31262302 -11.92192711 11.63573639 -12.4375 7.4375 C-11.98462662 3.87920917 -11.55248298 2.45794657 -9 0 C-5.45026831 -1.1832439 -3.60040463 -0.90010116 0 0 Z " fill="#27F2FC" transform="translate(180,79)"/>
<path d="M0 0 C2.09765625 0.37890625 2.09765625 0.37890625 4.16015625 1.94140625 C5.48207815 5.3784032 5.61067672 7.72363542 5.09765625 11.37890625 C2.62707728 14.79411836 1.18615362 16.15676393 -2.96484375 17.00390625 C-5.90234375 16.37890625 -5.90234375 16.37890625 -8.27734375 14.31640625 C-10.29705176 10.66539562 -10.42650556 8.49732044 -9.90234375 4.37890625 C-8.05397524 -0.42685188 -4.62433353 -0.23309649 0 0 Z " fill="#2CF1FD" transform="translate(261.90234375,78.62109375)"/>
<path d="M0 0 C2.86568179 0.53731534 5.60535254 1.17841239 8.40625 2.00390625 C14.05438624 3.40828009 19.70509072 3.43134031 25.5 3.5625 C26.77560791 3.59786865 28.05121582 3.6332373 29.36547852 3.66967773 C52.9051494 4.29903108 76.45533646 4.61644854 100 5 C100 5.33 100 5.66 100 6 C98.67694603 6.0154612 98.67694603 6.0154612 97.3271637 6.03123474 C88.98585246 6.12950201 80.64460705 6.232056 72.30340672 6.33933926 C68.01585348 6.39433621 63.7282932 6.44771698 59.44067383 6.49731445 C55.2973936 6.54530323 51.15418873 6.59765464 47.01099968 6.65294075 C45.43591137 6.67320913 43.86080254 6.69194611 42.28567696 6.70907402 C34.46836781 6.79503193 26.75987718 6.94233276 19 8 C11.65855317 8.63611968 6.49756599 7.51559126 0 4 C0 2.68 0 1.36 0 0 Z " fill="#705F84" transform="translate(247,278)"/>
<path d="M0 0 C5.87123989 0.1101387 9.42689178 2.09709452 14.25 5.3125 C14.25 5.9725 14.25 6.6325 14.25 7.3125 C14.91 7.3125 15.57 7.3125 16.25 7.3125 C19.89787652 12.67031864 21.40315072 16.8149392 20.25 23.3125 C19.13965363 26.19365739 17.81169816 28.62833129 16.25 31.3125 C15.59 31.3125 14.93 31.3125 14.25 31.3125 C14.25 31.9725 14.25 32.6325 14.25 33.3125 C13.59 33.3125 12.93 33.3125 12.25 33.3125 C11.92 34.3025 11.59 35.2925 11.25 36.3125 C9.765 36.8075 9.765 36.8075 8.25 37.3125 C7.44604975 41.53532518 7.13188637 45.50863764 7.15234375 49.8046875 C7.15556641 51.00351563 7.15878906 52.20234375 7.16210938 53.4375 C7.17048828 54.675 7.17886719 55.9125 7.1875 57.1875 C7.19201172 58.44820312 7.19652344 59.70890625 7.20117188 61.0078125 C7.2129203 64.10939545 7.23085465 67.21095388 7.25 70.3125 C13.52 70.3125 19.79 70.3125 26.25 70.3125 C24.25 72.3125 24.25 72.3125 22.38647461 72.55541992 C21.64921143 72.55131104 20.91194824 72.54720215 20.15234375 72.54296875 C19.35119141 72.54103516 18.55003906 72.53910156 17.72460938 72.53710938 C16.88736328 72.52486328 16.05011719 72.51261719 15.1875 72.5 C14.34638672 72.49935547 13.50527344 72.49871094 12.63867188 72.49804688 C6.39023184 72.45273184 6.39023184 72.45273184 5.25 71.3125 C4.93444552 66.3798852 4.89322277 61.44486832 4.8449707 56.50317383 C4.8233905 54.83955121 4.7892865 53.17604214 4.74243164 51.51293945 C4.67549112 49.11618298 4.64798497 46.72177759 4.62890625 44.32421875 C4.60107559 43.58241867 4.57324493 42.84061859 4.54457092 42.07633972 C4.55297852 39.96362305 4.55297852 39.96362305 5.25 36.3125 C8.18603516 33.90942383 8.18603516 33.90942383 11.25 32.3125 C15.78786382 28.00099043 17.34789249 24.02465519 17.625 17.875 C17.6003878 14.12163955 17.43401803 13.53041609 14.875 10.5 C13.575625 9.4171875 13.575625 9.4171875 12.25 8.3125 C11.9509375 7.6215625 11.651875 6.930625 11.34375 6.21875 C10.4370879 4.13479401 10.4370879 4.13479401 8.3671875 3.73828125 C7.62726563 3.70089844 6.88734375 3.66351563 6.125 3.625 C4.93197266 3.54378906 4.93197266 3.54378906 3.71484375 3.4609375 C2.90144531 3.41195312 2.08804687 3.36296875 1.25 3.3125 C-0.27225914 3.13695117 -1.79331163 2.95039205 -3.3125 2.75 C-4.446875 2.605625 -5.58125 2.46125 -6.75 2.3125 C-4.26997407 -0.16752593 -3.42167487 0.01555307 0 0 Z " fill="#DBDDEA" transform="translate(299.75,33.6875)"/>
<path d="M0 0 C5.04543683 0.10012995 8.54915424 0.36564566 12.37890625 3.765625 C17.08571048 9.25475909 19.70143074 14.54129694 19.30078125 21.87890625 C18.41638975 26.51311771 16.53942146 30.59961053 13.8125 34.4375 C12.9656665 34.97205811 12.11883301 35.50661621 11.24633789 36.05737305 C8.4445294 38.32149283 8.4445294 38.32149283 8.22900391 42.20874023 C8.22305233 43.72131219 8.24472277 45.23416011 8.2890625 46.74609375 C8.2961171 47.95169701 8.2961171 47.95169701 8.30331421 49.18165588 C8.32463188 51.74698117 8.38119488 54.31022956 8.4375 56.875 C8.45401241 58.5969856 8.46835912 60.31899343 8.48046875 62.04101562 C8.44025775 71.30854157 8.44025775 71.30854157 9.8125 80.4375 C8.3275 79.4475 8.3275 79.4475 6.8125 78.4375 C6.45173645 76.60250854 6.45173645 76.60250854 6.47192383 74.35498047 C6.47215042 73.51425995 6.47237701 72.67353943 6.47261047 71.80734253 C6.48809433 70.89896637 6.50357819 69.99059021 6.51953125 69.0546875 C6.52377609 68.12528351 6.52802094 67.19587952 6.53239441 66.23831177 C6.54921988 63.26274944 6.58687897 60.28785844 6.625 57.3125 C6.64004184 55.29818685 6.65373112 53.28386311 6.66601562 51.26953125 C6.69913606 46.32526121 6.75094471 41.38149451 6.8125 36.4375 C7.45058594 36.14488281 8.08867187 35.85226563 8.74609375 35.55078125 C11.32097941 34.16355551 11.67536898 33.09080571 12.8125 30.4375 C13.31265625 29.69757812 13.8128125 28.95765625 14.328125 28.1953125 C16.04074198 25.01345042 16.30279143 22.714196 16.5 19.125 C16.56574219 18.05636719 16.63148438 16.98773438 16.69921875 15.88671875 C16.73660156 15.07847656 16.77398437 14.27023438 16.8125 13.4375 C16.1525 13.4375 15.4925 13.4375 14.8125 13.4375 C14.1525 12.4475 13.4925 11.4575 12.8125 10.4375 C11.15717377 9.41883771 9.48989862 8.41939187 7.8125 7.4375 C7.131875 6.633125 7.131875 6.633125 6.4375 5.8125 C3.86172532 3.63299835 1.10495655 3.77232609 -2.1875 3.4375 C-4.18847458 3.1100678 -6.18883314 2.77873581 -8.1875 2.4375 C-5.45914512 -0.29085488 -3.80968855 0.07452785 0 0 Z " fill="#E8EBF3" transform="translate(136.1875,33.5625)"/>
<path d="M0 0 C23.76 0 47.52 0 72 0 C72.495 0.99 72.495 0.99 73 2 C65.38422812 2.02332525 57.76846001 2.0410168 50.15266037 2.05181217 C46.61510696 2.05699733 43.07757826 2.06401409 39.54003906 2.07543945 C35.45898217 2.08853548 31.37795062 2.09326427 27.296875 2.09765625 C26.04638367 2.10281754 24.79589233 2.10797882 23.50750732 2.11329651 C15.95322499 2.11377186 8.51627226 1.76253212 1 1 C0.896875 1.886875 0.79375 2.77375 0.6875 3.6875 C-0.76511917 10.68648327 -5.63599829 16.37822254 -11.3125 20.5625 C-18.80739364 25.06707105 -26.65844961 24.21087022 -35 23 C-35 22.67 -35 22.34 -35 22 C-33.54980469 21.97873047 -33.54980469 21.97873047 -32.0703125 21.95703125 C-22.99241302 21.62447454 -14.93965388 21.01465947 -8.19921875 14.171875 C-4.66473324 9.71649376 -2.59956472 5.19912944 0 0 Z " fill="#E8E4F1" transform="translate(116,183)"/>
<path d="M0 0 C6.44774512 -1.00949545 12.84136982 0.06117198 19 2 C20.61181795 3.61181795 20.58683702 5.60788819 21 7.8125 C21.58429913 10.90289463 22.20539872 13.95639333 23 17 C23.88042969 17.00257813 24.76085937 17.00515625 25.66796875 17.0078125 C35.04143973 17.31991475 35.04143973 17.31991475 37.9765625 19.40234375 C39.3125 21.0625 39.3125 21.0625 41 24 C40.443125 23.690625 39.88625 23.38125 39.3125 23.0625 C36.2684476 21.66388133 33.39109721 21.07496931 30.04296875 20.89453125 C26.22932892 20.6327415 24.5211893 20.48004278 21.625 17.8125 C18.58255276 12.54672594 18 9.18693682 18 3 C12.06 2.67 6.12 2.34 0 2 C-0.33 3.32 -0.66 4.64 -1 6 C-4.53934094 11.650305 -9.62888705 15.99278579 -16 18 C-29.06970509 19.28686327 -29.06970509 19.28686327 -34 16 C-28.72 16.33 -23.44 16.66 -18 17 C-18 16.34 -18 15.68 -18 15 C-17.34773438 14.72027344 -16.69546875 14.44054687 -16.0234375 14.15234375 C-8.49630714 10.69963351 -4.52934645 6.79401967 0 0 Z " fill="#E5E1EC" transform="translate(106,117)"/>
<path d="M0 0 C-3.56841999 2.91242872 -5.4242701 3.32041489 -10.0625 3.125 C-14.60936328 2.95353448 -14.60936328 2.95353448 -19 4 C-20.88656815 4.08852819 -22.77615524 4.11762222 -24.66479492 4.11352539 C-25.82577194 4.11344986 -26.98674896 4.11337433 -28.1829071 4.11329651 C-29.43610245 4.10813522 -30.68929779 4.10297394 -31.98046875 4.09765625 C-33.26359451 4.0962413 -34.54672028 4.09482635 -35.86872864 4.09336853 C-39.27670241 4.08955405 -42.68463343 4.07973291 -46.09259033 4.06866455 C-49.57148663 4.05842743 -53.05038985 4.05386598 -56.52929688 4.04882812 C-63.35288212 4.03810967 -70.17643901 4.02104609 -77 4 C-77.33 3.34 -77.66 2.68 -78 2 C-64.98342591 1.28219041 -51.97686609 0.77890802 -38.94360352 0.49731445 C-36.17129879 0.43714839 -33.39913537 0.37218664 -30.62695312 0.30664062 C-20.41580275 0.07247579 -10.21393419 -0.06193838 0 0 Z " fill="#2D0442" transform="translate(176,283)"/>
<path d="M0 0 C2.83439137 -0.10901505 5.66450203 -0.18777904 8.5 -0.25 C9.29148438 -0.28351562 10.08296875 -0.31703125 10.8984375 -0.3515625 C18.27656713 -0.47251544 22.96852319 1.97901546 29 6 C29 6.66 29 7.32 29 8 C29.99 8.33 30.98 8.66 32 9 C35.4637849 12.38572777 36.89838977 15.84387381 37.3203125 20.64453125 C37.31329092 24.10968199 37.21854451 27.54214017 37 31 C34.71826992 28.71826992 34.67606392 27.95671089 34.1875 24.875 C32.7651775 17.92017897 29.16051868 12.79191021 24 8 C23.67 7.34 23.34 6.68 23 6 C15.73276989 1.88500859 8.20166507 1.25710549 0 1 C0 0.67 0 0.34 0 0 Z " fill="#735E8A" transform="translate(209,15)"/>
<path d="M0 0 C0.99 0.33 1.98 0.66 3 1 C2.67 1.66 2.34 2.32 2 3 C1.34 3 0.68 3 0 3 C-0.433125 3.88945312 -0.433125 3.88945312 -0.875 4.796875 C-1.82776987 6.66271599 -2.90200238 8.46575387 -4 10.25 C-9.41864115 21.16121843 -8.3335443 35.98291693 -8.25 47.9375 C-8.24822754 48.67514587 -8.24645508 49.41279175 -8.24462891 50.17279053 C-8.21444583 60.88343097 -7.83374232 71.42323628 -6 82 C-10.96427128 77.03572872 -10.23795295 67.04730932 -10.30354309 60.38694763 C-10.30263168 59.38140335 -10.30172028 58.37585907 -10.30078125 57.33984375 C-10.30506638 56.26932266 -10.3093515 55.19880157 -10.31376648 54.09584045 C-10.31946901 51.8496267 -10.32004044 49.60339449 -10.31567383 47.35717773 C-10.31250499 43.94287435 -10.33605595 40.52943162 -10.36132812 37.11523438 C-10.36360083 34.91927191 -10.36430475 32.72330715 -10.36328125 30.52734375 C-10.372491 29.51977524 -10.38170074 28.51220673 -10.39118958 27.47410583 C-10.32790202 17.67149265 -8.41552876 9.56703392 -2 2 C-1.34 2 -0.68 2 0 2 C0 1.34 0 0.68 0 0 Z " fill="#F0F3F8" transform="translate(243,185)"/>
<path d="M0 0 C6.31266025 0.17225558 10.29481461 2.85731461 14.671875 7.234375 C18.05734317 11.26469425 19.85377074 14.9084654 20.109375 20.203125 C19.42843532 26.69474998 15.59803343 31.19888026 10.875 35.4375 C10.38 35.994375 9.885 36.55125 9.375 37.125 C5.6056649 40.42316821 1.71570615 40.66264912 -3.125 40.4375 C-3.125 40.1075 -3.125 39.7775 -3.125 39.4375 C-1.475 39.4375 0.175 39.4375 1.875 39.4375 C1.875 38.7775 1.875 38.1175 1.875 37.4375 C3.2053125 36.8496875 3.2053125 36.8496875 4.5625 36.25 C10.06665842 33.23829068 13.94407836 28.97368532 16.875 23.4375 C17.56208319 19.05204312 17.2896901 15.22349559 14.875 11.4375 C12.71189432 9.53478269 12.71189432 9.53478269 10.25 7.8125 C8.75698574 6.73395027 7.28850645 5.61833049 5.875 4.4375 C5.875 3.7775 5.875 3.1175 5.875 2.4375 C1.915 2.4375 -2.045 2.4375 -6.125 2.4375 C-3.78739424 0.09989424 -3.19241017 0.09454873 0 0 Z " fill="#D8DDED" transform="translate(260.125,67.5625)"/>
<path d="M0 0 C0.99 0 1.98 0 3 0 C4.66577625 3.33155251 4.12007856 7.06536059 4.09765625 10.7265625 C4.0962413 11.58937836 4.09482635 12.45219421 4.09336853 13.34115601 C4.08776188 16.1024723 4.07520827 18.86370812 4.0625 21.625 C4.05748586 23.4947905 4.0529228 25.36458226 4.04882812 27.234375 C4.03779029 31.82294777 4.0205212 36.41146023 4 41 C2.15625 41.625 2.15625 41.625 0 42 C-4.22113412 38.62309271 -6.51483421 34.69420205 -9 30 C-5.18063472 31.55603771 -2.73955562 33.95604931 0 37 C0 37.66 0 38.32 0 39 C0.66 39 1.32 39 2 39 C2 26.46 2 13.92 2 1 C1.34 0.67 0.68 0.34 0 0 Z " fill="#B6ADC1" transform="translate(208,72)"/>
<path d="M0 0 C3.875 1.875 3.875 1.875 5 3 C5.42299956 6.13019677 5.30513662 7.5550091 3.5 10.1875 C-2.05437429 14.21442136 -9.34271379 14.41440538 -16 15 C-16.33 15.99 -16.66 16.98 -17 18 C-19.08304538 18.05418326 -21.16649768 18.09287551 -23.25 18.125 C-24.41015625 18.14820313 -25.5703125 18.17140625 -26.765625 18.1953125 C-29.82786046 18.0103949 -31.44202751 17.60823023 -34 16 C-33.01 15.67 -32.02 15.34 -31 15 C-31 14.34 -31 13.68 -31 13 C-29.68386719 12.95101563 -28.36773437 12.90203125 -27.01171875 12.8515625 C-11.44840009 13.36213176 -11.44840009 13.36213176 2 8 C2.16687448 5.41645782 2.16687448 5.41645782 2 3 C1.34 2.67 0.68 2.34 0 2 C0 1.34 0 0.68 0 0 Z " fill="#EFEEF4" transform="translate(348,285)"/>
<path d="M0 0 C6.75 1.625 6.75 1.625 9 5 C8.6758631 8.32240324 8.39223697 9.60776303 6 12 C0.66666667 12.33333333 0.66666667 12.33333333 -2 11 C-3.50637312 4.85863268 -3.50637312 4.85863268 -1.5625 1.5625 C-1.046875 1.046875 -0.53125 0.53125 0 0 Z " fill="#ECF6FC" transform="translate(360,88)"/>
<path d="M0 0 C3 1 3 1 4.9375 3.9375 C6.90250982 6.85524185 7.7832197 7.85114989 11 9 C11 10.32 11 11.64 11 13 C7.95016004 14.52491998 5.3576631 14.23562548 2 14 C-0.15625959 12.41303324 -0.89178838 11.40742765 -1.58203125 8.80859375 C-1.65808594 8.02613281 -1.73414063 7.24367188 -1.8125 6.4375 C-1.90144531 5.65246094 -1.99039062 4.86742187 -2.08203125 4.05859375 C-2 2 -2 2 0 0 Z " fill="#14C2F0" transform="translate(293,47)"/>
<path d="M0 0 C3.22309876 1.07436625 5.19480524 2.51423938 7.625 4.875 C7.625 7.875 7.625 7.875 5.4375 10.125 C2.625 11.875 2.625 11.875 0 11.875 C-2.91212894 10.64884045 -3.90336866 9.66335412 -5.375 6.875 C-5.75 4.25 -5.75 4.25 -5.375 1.875 C-2.375 -0.125 -2.375 -0.125 0 0 Z " fill="#E2F2FA" transform="translate(225.375,27.125)"/>
<path d="M0 0 C0.99 0.33 1.98 0.66 3 1 C1.71034824 2.37562854 0.37310707 3.70766393 -1 5 C-1.66 5 -2.32 5 -3 5 C-3 5.66 -3 6.32 -3 7 C-4.49609375 8.4375 -4.49609375 8.4375 -6.4375 10 C-9.15188238 12.14525044 -9.15188238 12.14525044 -11 15 C-11.66 15 -12.32 15 -13 15 C-13 15.66 -13 16.32 -13 17 C-16.95560077 21.35116084 -21.48132875 25.13075533 -25.890625 29.01171875 C-28.05513264 30.82350446 -28.05513264 30.82350446 -29 33 C-28.34 33.33 -27.68 33.66 -27 34 C-28.32 33.67 -29.64 33.34 -31 33 C-31 30 -31 30 -29.88598633 28.52954102 C-29.11677856 27.77435181 -29.11677856 27.77435181 -28.33203125 27.00390625 C-27.76806641 26.44509766 -27.20410156 25.88628906 -26.62304688 25.31054688 C-26.02556641 24.73369141 -25.42808594 24.15683594 -24.8125 23.5625 C-24.23435547 22.98951172 -23.65621094 22.41652344 -23.06054688 21.82617188 C-20.49994862 19.31186692 -17.94493039 16.95604949 -15.13671875 14.71484375 C-12.91355987 13.17515512 -12.91355987 13.17515512 -12 11 C-11.34 11 -10.68 11 -10 11 C-9.34 9.68 -8.68 8.36 -8 7 C-7.34 7 -6.68 7 -6 7 C-5.7525 6.401875 -5.505 5.80375 -5.25 5.1875 C-3.80517427 2.65905497 -2.51719455 1.44929383 0 0 Z " fill="#C2C6DC" transform="translate(291,136)"/>
<path d="M0 0 C3.73353364 0.2871949 6.32404139 0.53202866 9.4375 2.6875 C11.43616051 5.64551756 11.38897707 7.49920639 11 11 C10 12 10 12 7.6875 12.3125 C5 12 5 12 2.75 10.5 C0.29431266 6.99187523 0.28321163 4.24817445 0 0 Z " fill="#E6F0FA" transform="translate(91,163)"/>
<path d="M0 0 C0.66 0 1.32 0 2 0 C1.42235562 3.13084099 0.59969956 4.77743006 -1.65234375 7.015625 C-2.44608398 7.80839844 -2.44608398 7.80839844 -3.25585938 8.6171875 C-3.81080078 9.15601563 -4.36574219 9.69484375 -4.9375 10.25 C-5.48857422 10.80429688 -6.03964844 11.35859375 -6.60742188 11.9296875 C-10.73287408 16 -10.73287408 16 -13 16 C-13.24234375 16.56589844 -13.4846875 17.13179687 -13.734375 17.71484375 C-17.21526695 23.99978755 -23.3014607 29.42363873 -30 32 C-28.66550466 28.39686258 -26.46688177 26.62374784 -23.5 24.27734375 C-21.81950216 22.93075539 -21.81950216 22.93075539 -20.125 20.625 C-17.70633738 17.6372403 -15.00590099 15.32583219 -12.09375 12.83203125 C-8.14134409 9.37367608 -4.32582989 5.78301261 -1.1875 1.5625 C-0.795625 1.046875 -0.40375 0.53125 0 0 Z " fill="#907E9D" transform="translate(276,128)"/>
<path d="M0 0 C16.36021265 -0.15283326 32.65673445 0.25793167 49 1 C49 1.33 49 1.66 49 2 C39.0654993 3.81582264 29.52166393 4.12849219 19.4375 3.75 C18.32004395 3.71140869 17.20258789 3.67281738 16.05126953 3.63305664 C10.38968173 3.37346419 5.3587789 2.87595703 0 1 C0 0.67 0 0.34 0 0 Z " fill="#7B638C" transform="translate(273,168)"/>
<path d="M0 0 C0.66 0.33 1.32 0.66 2 1 C1.360625 1.2475 0.72125 1.495 0.0625 1.75 C-2.09996117 2.79221124 -2.09996117 2.79221124 -2.75 4.6875 C-3.3197499 9.95768656 -3.34293869 14.16768894 -1 19 C3.7373412 19.46444522 6.94841058 19.66529126 11.0625 17.0625 C13.69366869 12.90355594 13.40223178 9.77315046 13 5 C13 4.01 13 3.02 13 2 C15.58097058 4.58097058 16.02033471 6.13782417 16.5625 9.8125 C16.40829025 14.15472184 14.57456198 16.436713 11.703125 19.5546875 C9.36748591 21.53676655 7.25832096 23.08388806 4.125 22.875 C0.1653365 21.24455032 -3.10000164 19.40869308 -5.4375 15.75 C-6.21248376 11.9611905 -6.1938439 8.7009161 -5 5 C-2.4375 2 -2.4375 2 0 0 Z " fill="#DDDAE6" transform="translate(139,195)"/>
<path d="M0 0 C-0.33 0.99 -0.66 1.98 -1 3 C-1.66 3 -2.32 3 -3 3 C-1.75023244 6.65316671 -1.32901247 7.78065836 2 10 C3.9896995 10.39013716 5.99019869 10.73202649 8 11 C3.79457364 15.80620155 3.79457364 15.80620155 0.4375 16.625 C-2 16 -2 16 -4.3125 13.9375 C-6.41112491 10.28433812 -6.52886081 8.15533496 -6 4 C-3.84615385 0 -3.84615385 0 0 0 Z " fill="#0CB1F2" transform="translate(174,79)"/>
<path d="M0 0 C4.11550038 0.36582226 7.12821528 0.90730876 10 4 C10.25 6.6875 10.25 6.6875 10 9 C7.8128711 10.32789969 6.52279544 11.04752686 3.9375 10.8125 C1.57732658 9.82274986 0.46251305 9.12064392 -1 7 C-1.25 3.875 -1.25 3.875 -1 1 C-0.67 0.67 -0.34 0.34 0 0 Z " fill="#E9EFF6" transform="translate(354,163)"/>
<path d="M0 0 C3.78383679 0.92493788 5.56693694 1.39371171 7.875 4.625 C8.431875 5.800625 8.431875 5.800625 9 7 C7.68 8.65 6.36 10.3 5 12 C0.25 11.25 0.25 11.25 -2 9 C-2.34490322 4.94738713 -2.30163882 3.45245824 0 0 Z " fill="#EAF2FB" transform="translate(86,88)"/>
<path d="M0 0 C6.6 0 13.2 0 20 0 C19.67 0.66 19.34 1.32 19 2 C18.01 2.33 17.02 2.66 16 3 C14.78130071 5.50447516 14.78130071 5.50447516 14 8 C13.34 8 12.68 8 12 8 C12 8.66 12 9.32 12 10 C10.02 10.33 8.04 10.66 6 11 C5.67 10.34 5.34 9.68 5 9 C6.4375 6.375 6.4375 6.375 8 4 C5.36 3.01 2.72 2.02 0 1 C0 0.67 0 0.34 0 0 Z " fill="#F4F3F8" transform="translate(347,133)"/>
<path d="M0 0 C0 0.33 0 0.66 0 1 C-0.78246094 1.06058594 -1.56492188 1.12117187 -2.37109375 1.18359375 C-3.88896484 1.30927734 -3.88896484 1.30927734 -5.4375 1.4375 C-6.44683594 1.51871094 -7.45617187 1.59992188 -8.49609375 1.68359375 C-10.93640779 1.73211468 -10.93640779 1.73211468 -12 3 C-13.38275556 3.06354504 -14.76882779 3.05720954 -16.15258789 3.02172852 C-17.47384422 2.99158409 -17.47384422 2.99158409 -18.8217926 2.96083069 C-19.77907761 2.93379562 -20.73636261 2.90676056 -21.72265625 2.87890625 C-22.69786728 2.85529526 -23.67307831 2.83168427 -24.67784119 2.80735779 C-27.80620134 2.73051362 -30.93432672 2.64657909 -34.0625 2.5625 C-36.17772272 2.50930007 -38.29295704 2.45655956 -40.40820312 2.40429688 C-45.60561541 2.27487061 -50.802852 2.13961577 -56 2 C-56 1.67 -56 1.34 -56 1 C-37.31804584 0.10242592 -18.69751868 -0.12672979 0 0 Z " fill="#AA9CB9" transform="translate(172,168)"/>
<path d="M0 0 C3.02743854 1.33679104 4.96868348 2.74370541 7.125 5.25 C7.87136719 6.09304687 7.87136719 6.09304687 8.6328125 6.953125 C10 9 10 9 12 15 C22.56 15 33.12 15 44 15 C44 15.33 44 15.66 44 16 C31.90836187 16.72431573 20.07086818 17.33891883 8 16 C5.08373206 9.40669856 5.08373206 9.40669856 4.5625 6.875 C3.71775711 4.05919037 1.89454283 2.20011426 0 0 Z " fill="#361351" transform="translate(104,155)"/>
<path d="M0 0 C0.33 0 0.66 0 1 0 C1.40949912 10.66214364 1.66009091 19.06902046 -5.5625 27.375 C-6.16191406 28.00148438 -6.76132813 28.62796875 -7.37890625 29.2734375 C-9.19237533 31.10966051 -9.19237533 31.10966051 -11 34 C-14.50655741 36.46757744 -17.82733156 36.16048725 -22 36 C-19.71902643 34.85951321 -17.452962 33.76164244 -15.11328125 32.7421875 C-8.59508878 29.09461681 -4.32702286 21.95308064 -2.0625 14.9375 C-0.83162861 10.02190464 -0.31159893 5.05005165 0 0 Z " fill="#CDD4E5" transform="translate(246,36)"/>
<path d="M0 0 C6.35190981 0.08431739 9.24805303 1.07591734 13.8125 5.4375 C15.9644437 8.66541555 16.01336443 9.72150809 15.8125 13.4375 C15.420625 13.004375 15.02875 12.57125 14.625 12.125 C12.81078674 10.31874408 12.81078674 10.31874408 10.3125 8.9375 C7.8125 7.4375 7.8125 7.4375 6.4375 5.8125 C3.86172532 3.63299835 1.10495655 3.77232609 -2.1875 3.4375 C-4.18847458 3.1100678 -6.18883314 2.77873581 -8.1875 2.4375 C-5.45914512 -0.29085488 -3.80968855 0.07452785 0 0 Z " fill="#9886AA" transform="translate(136.1875,33.5625)"/>
<path d="M0 0 C0.66 0.33 1.32 0.66 2 1 C3.66821323 0.67449498 5.33499557 0.34153937 7 0 C7.33 0.33 7.66 0.66 8 1 C7.6875 4.5 7.6875 4.5 7 8 C4.59454362 9.20272819 3.05003047 9.10071472 0.375 9.0625 C-0.85089844 9.04896484 -0.85089844 9.04896484 -2.1015625 9.03515625 C-3.04128906 9.01775391 -3.04128906 9.01775391 -4 9 C-3.34 8.67 -2.68 8.34 -2 8 C-2 7.34 -2 6.68 -2 6 C-2.66 5.34 -3.32 4.68 -4 4 C-2.68 2.68 -1.36 1.36 0 0 Z " fill="#FFFFFF" transform="translate(370,197)"/>
<path d="M0 0 C0.33 0 0.66 0 1 0 C1.41478255 6.07171048 -0.32076835 8.84760425 -3.8828125 13.58984375 C-8.40659599 18.73961203 -13.1116985 22.06177795 -20 22.9375 C-24.74828456 23.16077357 -29.30283354 22.68184674 -34 22 C-34 21.67 -34 21.34 -34 21 C-32.54980469 20.97873047 -32.54980469 20.97873047 -31.0703125 20.95703125 C-21.96097087 20.6233227 -13.9254743 19.99883243 -7.1640625 13.13671875 C-3.93740247 9.08371896 -1.81230522 4.83281392 0 0 Z " fill="#D0CCDE" transform="translate(115,184)"/>
<path d="M0 0 C0.99 0.66 1.98 1.32 3 2 C3.375 4.5 3.375 4.5 3 7 C0 9 0 9 -2.5625 8.875 C-5 8 -5 8 -6.3125 6.1875 C-7 4 -7 4 -7 0 C-4.28569464 -1.35715268 -2.88661718 -0.77445827 0 0 Z " fill="#D7ECF8" transform="translate(140,45)"/>
<path d="M0 0 C6.27 0 12.54 0 19 0 C19 0.33 19 0.66 19 1 C13.06 1 7.12 1 1 1 C1.103125 2.876875 1.20625 4.75375 1.3125 6.6875 C1.3125 12.5625 1.3125 12.5625 -1.1875 16.0625 C-2.115625 16.701875 -3.04375 17.34125 -4 18 C-5.2065625 18.8971875 -5.2065625 18.8971875 -6.4375 19.8125 C-9.5250302 21.24330668 -11.63345098 21.374061 -15 21 C-15.66 20.34 -16.32 19.68 -17 19 C-16.33613281 18.91363281 -15.67226563 18.82726562 -14.98828125 18.73828125 C-10.8102635 18.07345799 -7.61636932 17.38523083 -4 15.125 C-0.92411621 10.31893157 -0.68173281 5.63978959 0 0 Z " fill="#DCDFED" transform="translate(311,118)"/>
<path d="M0 0 C4.75 1.875 4.75 1.875 7 3 C7 3.66 7 4.32 7 5 C7.66 5 8.32 5 9 5 C10.47265625 7.08203125 10.47265625 7.08203125 12.0625 9.8125 C12.58972656 10.70582031 13.11695313 11.59914063 13.66015625 12.51953125 C16.06201361 16.96611849 16.12229838 20.7610332 16.0625 25.6875 C16.05798828 26.38939453 16.05347656 27.09128906 16.04882812 27.81445312 C16.03706927 29.54300538 16.01913454 31.27151365 16 33 C15.67 33 15.34 33 15 33 C14.96132813 31.76636719 14.96132813 31.76636719 14.921875 30.5078125 C14.55361917 23.25986811 14.15576815 16.17204381 10 10 C7.73253876 8.16141059 5.49951104 6.72478003 2.92578125 5.3515625 C1 4 1 4 0.23046875 1.8359375 C0.15441406 1.23007813 0.07835937 0.62421875 0 0 Z " fill="#E7E7EF" transform="translate(369,80)"/>
<path d="M0 0 C8.27667395 0.13687994 14.26054829 2.1154308 20.875 7.3125 C22.25 9.5625 22.25 9.5625 22.875 11.3125 C21.9675 10.549375 21.06 9.78625 20.125 9 C12.03224941 3.25203027 1.49151955 2.80696643 -8.125 2.3125 C-5.39514175 -0.41735825 -3.80897852 0.01325631 0 0 Z " fill="#AEA1B9" transform="translate(81.125,75.6875)"/>
<path d="M0 0 C0.99 0.33 1.98 0.66 3 1 C3 1.66 3 2.32 3 3 C3.8353125 3.3403125 3.8353125 3.3403125 4.6875 3.6875 C7.64176591 5.36424552 9.66847851 7.54576685 12 10 C14.35953094 12.35953094 15.77895617 12.49141413 19 13 C19 13.33 19 13.66 19 14 C13.25608064 14.50385258 10.07645187 14.15168435 5.54296875 10.5 C3.20773997 8.2298029 1.55076982 5.85341646 0 3 C0 2.01 0 1.02 0 0 Z " fill="#79688D" transform="translate(189,158)"/>
<path d="M0 0 C2.82956479 2.70654023 3.96750313 3.9886975 4.09765625 8.0390625 C4.08605469 9.22242187 4.07445313 10.40578125 4.0625 11.625 C4.05347656 12.81351563 4.04445313 14.00203125 4.03515625 15.2265625 C4.02355469 16.14179687 4.01195313 17.05703125 4 18 C3.67 18 3.34 18 3 18 C2.67 15.03 2.34 12.06 2 9 C0.02 9.99 0.02 9.99 -2 11 C-5.75 10.125 -5.75 10.125 -9 9 C-9.33 7.68 -9.66 6.36 -10 5 C-8.515 5.99 -8.515 5.99 -7 7 C-4.40882687 6.99843776 -4.40882687 6.99843776 -2 6 C-0.54286376 3.84898936 0 2.59713506 0 0 Z " fill="#56C6F0" transform="translate(94,92)"/>
<path d="M0 0 C0.33 0.99 0.66 1.98 1 3 C2.71519747 4.02651373 2.71519747 4.02651373 5 5 C7.34955148 6.30586659 9.67152857 7.6566511 12 9 C12 9.66 12 10.32 12 11 C9.12529507 12.43735246 7.18105412 12.38172649 4 12 C1.625 9.9375 1.625 9.9375 0 7 C-0.25 3.1875 -0.25 3.1875 0 0 Z " fill="#0A9EEB" transform="translate(252,83)"/>
<path d="M0 0 C0.73089844 0.00410889 1.46179688 0.00821777 2.21484375 0.01245117 C3.01148438 0.01438477 3.808125 0.01631836 4.62890625 0.01831055 C5.87800781 0.03667969 5.87800781 0.03667969 7.15234375 0.05541992 C7.98507812 0.05606445 8.8178125 0.05670898 9.67578125 0.05737305 C15.8714786 0.10248735 15.8714786 0.10248735 18.15234375 1.24291992 C18.15234375 1.90291992 18.15234375 2.56291992 18.15234375 3.24291992 C19.80234375 3.90291992 21.45234375 4.56291992 23.15234375 5.24291992 C22.16234375 5.73791992 22.16234375 5.73791992 21.15234375 6.24291992 C20.49878906 5.95674805 19.84523438 5.67057617 19.171875 5.37573242 C14.8133706 3.74058847 10.45532428 3.51586241 5.83984375 3.11791992 C4.90849609 3.03155273 3.97714844 2.94518555 3.01757812 2.85620117 C0.72969402 2.64501187 -1.55858971 2.44080726 -3.84765625 2.24291992 C-1.84765625 0.24291992 -1.84765625 0.24291992 0 0 Z " fill="#826E94" transform="translate(342.84765625,150.757080078125)"/>
<path d="M0 0 C4.10262033 1.31844893 5.95676589 2.75198643 8.4375 6.25 C11.36164601 10.21939996 14.43085526 13.60495988 18 17 C17.67 17.66 17.34 18.32 17 19 C16.443125 18.401875 15.88625 17.80375 15.3125 17.1875 C13.12967541 14.94977367 13.12967541 14.94977367 10.625 13.64453125 C7.79864303 11.87385226 5.89319678 9.99231274 3.6875 7.5 C2.99011719 6.7265625 2.29273438 5.953125 1.57421875 5.15625 C0 3 0 3 0 0 Z " fill="#A79BB4" transform="translate(143,112)"/>
<path d="M0 0 C2.80499471 0.52593651 5.45971212 1.14422341 8.1875 2 C14.9546899 3.70264233 22.05997323 3.47382175 29 3.625 C30.45705282 3.66324966 31.91408471 3.70230527 33.37109375 3.7421875 C36.91386926 3.83742506 40.4568043 3.92172897 44 4 C44 4.33 44 4.66 44 5 C39.48341286 5.04993675 34.96697774 5.08597002 30.45019531 5.10986328 C28.91794022 5.11983806 27.38570375 5.13342276 25.85351562 5.15087891 C17.39030162 5.24479186 9.23801601 5.25042199 1 3 C0.67 2.01 0.34 1.02 0 0 Z " fill="#C6C1CE" transform="translate(247,278)"/>
<path d="M0 0 C5.87123989 0.1101387 9.42689178 2.09709452 14.25 5.3125 C14.9375 7.9375 14.9375 7.9375 15.25 10.3125 C13.5425002 9.03187515 11.87626404 7.69482443 10.25 6.3125 C10.25 5.6525 10.25 4.9925 10.25 4.3125 C9.693125 4.25191406 9.13625 4.19132812 8.5625 4.12890625 C3.45206543 3.56779435 -1.64999553 2.96159148 -6.75 2.3125 C-4.26997407 -0.16752593 -3.42167487 0.01555307 0 0 Z " fill="#9988AB" transform="translate(299.75,33.6875)"/>
<path d="M0 0 C3 3 3 3 3.3984375 5.015625 C3.34162472 10.43177686 2.6632654 14.24416893 0 19 C-2.1875 20.9375 -2.1875 20.9375 -4 22 C-4.125 19.125 -4.125 19.125 -4 16 C-3.34 15.34 -2.68 14.68 -2 14 C-2 14.66 -2 15.32 -2 16 C-1.34 16 -0.68 16 0 16 C0 10.72 0 5.44 0 0 Z " fill="#583A69" transform="translate(315,44)"/>
<path d="M0 0 C3.37462715 0.54723683 5.08235 1.0549 8 3 C8 3.66 8 4.32 8 5 C8.60328125 5.25265625 9.2065625 5.5053125 9.828125 5.765625 C13.49610312 7.85030321 15.26415729 11.23552183 17 15 C17.3125 18.5 17.3125 18.5 17 21 C15.86163175 18.72326351 14.78556128 16.48083256 13.8125 14.125 C11.83538016 10.71617269 9.76419407 8.81886501 6.71875 6.39453125 C5.02468849 5.02003135 3.51813212 3.56451949 2 2 C1.34 1.34 0.68 0.68 0 0 Z " fill="#F1F2F7" transform="translate(361,153)"/>
<path d="M0 0 C2.59262225 0.99674343 3.79496283 1.66523252 5.265625 4.06640625 C7.48552001 9.69542574 9.07002901 14.91576526 8 21 C7.34 21.99 6.68 22.98 6 24 C5.85304688 22.49759766 5.85304688 22.49759766 5.703125 20.96484375 C4.93022285 13.85610744 4.18053171 7.99209545 0 2 C0 1.34 0 0.68 0 0 Z " fill="#544473" transform="translate(376,88)"/>
<path d="M0 0 C5.57764733 2.62477522 9.56054343 7.37065926 11.82421875 13.078125 C12.28892105 14.69963942 12.6559722 16.34866657 13 18 C12.34 18 11.68 18 11 18 C10.773125 16.72125 10.54625 15.4425 10.3125 14.125 C9.82297298 11.91940522 9.82297298 11.91940522 9 10 C6.63813861 8.73854232 6.63813861 8.73854232 4 8 C0 3.78378378 0 3.78378378 0 0 Z " fill="#4D326E" transform="translate(96,81)"/>
<path d="M0 0 C5.36170213 0.59574468 5.36170213 0.59574468 7.875 2.1875 C9.49664405 4.80014875 9.20031953 6.99520702 9 10 C5.17647894 8.4422692 2.70794407 6.08404742 0 3 C0 2.01 0 1.02 0 0 Z " fill="#A1E9F4" transform="translate(174,78)"/>
<path d="M0 0 C5.43837283 0.1287775 10.16305845 2.28289276 14.10546875 6.01171875 C14.52441406 6.46160156 14.94335938 6.91148438 15.375 7.375 C15.045 8.035 14.715 8.695 14.375 9.375 C12.93377387 8.77977663 11.49714132 8.17342381 10.0625 7.5625 C9.26199219 7.22605469 8.46148437 6.88960938 7.63671875 6.54296875 C5.375 5.375 5.375 5.375 3.84375 3.75 C2.45581431 2.18751633 2.45581431 2.18751633 0.33203125 2.08203125 C-0.37566406 2.11683594 -1.08335937 2.15164062 -1.8125 2.1875 C-3.070625 2.249375 -4.32875 2.31125 -5.625 2.375 C-3.625 0.375 -3.625 0.375 0 0 Z " fill="#8F77A3" transform="translate(175.625,67.625)"/>
<path d="M0 0 C6.625 -0.125 6.625 -0.125 10 1 C12.61818051 5.40956717 12.19427197 10.04606469 12 15 C11.67 15 11.34 15 11 15 C10.9175 13.72125 10.835 12.4425 10.75 11.125 C10.53760757 8.9390249 10.53760757 8.9390249 10 7 C8.08235826 5.6237206 8.08235826 5.6237206 6 5 C5.67 4.01 5.34 3.02 5 2 C3.35 2 1.7 2 0 2 C0 1.34 0 0.68 0 0 Z " fill="#806D8C" transform="translate(141,194)"/>
<path d="M0 0 C2.49710982 0.34442894 3.82154665 0.84703999 5.75 2.5 C7.6494554 6.2989108 7.67641716 9.83743286 7 14 C4.93240751 17.47060168 2.89055567 19.77725393 -1 21 C-3.33203812 21.0777346 -5.66839059 21.08967728 -8 21 C-8 20.67 -8 20.34 -8 20 C-7.38511719 19.82984375 -6.77023437 19.6596875 -6.13671875 19.484375 C-0.03454234 17.72141887 -0.03454234 17.72141887 4 13 C4.66 13 5.32 13 6 13 C5.63118644 6.85310727 4.09949571 4.30972626 0 0 Z " fill="#EAEBF2" transform="translate(295,195)"/>
<path d="M0 0 C3 1 3 1 4.66796875 3.609375 C6.1574977 7.40090323 6.36863828 10.19077082 6.3125 14.25 C6.30863281 15.47203125 6.30476563 16.6940625 6.30078125 17.953125 C6 21 6 21 4 23 C3.96261719 21.98679688 3.92523438 20.97359375 3.88671875 19.9296875 C3.82101612 18.57809061 3.75457029 17.22652971 3.6875 15.875 C3.66494141 15.20984375 3.64238281 14.5446875 3.61914062 13.859375 C3.36871415 9.21510213 2.23583268 6.04008372 0 2 C0 1.34 0 0.68 0 0 Z " fill="#523C6F" transform="translate(371,163)"/>
<path d="M0 0 C1.65 1.32 3.3 2.64 5 4 C4.375 5.875 4.375 5.875 3 8 C-0.75263725 9.66783878 -3.91226018 10.24045528 -8 10 C-8.33 8.68 -8.66 7.36 -9 6 C-5.04 6 -1.08 6 3 6 C2.01 4.68 1.02 3.36 0 2 C0 1.34 0 0.68 0 0 Z " fill="#5E3E6F" transform="translate(170,163)"/>
<path d="M0 0 C5.21185536 0.11806792 9.08315027 1.85845816 12.875 5.4375 C13.875 8.25 13.875 8.25 13.875 10.4375 C12.53602417 9.48706626 11.20394573 8.52690853 9.875 7.5625 C9.1325 7.02882813 8.39 6.49515625 7.625 5.9453125 C7.0475 5.44773437 6.47 4.95015625 5.875 4.4375 C5.875 3.7775 5.875 3.1175 5.875 2.4375 C1.915 2.4375 -2.045 2.4375 -6.125 2.4375 C-3.78739424 0.09989424 -3.19241017 0.09454873 0 0 Z " fill="#A99ABC" transform="translate(260.125,67.5625)"/>
<path d="M0 0 C0.61875 0.33 1.2375 0.66 1.875 1 C3.91018344 2.14193235 3.91018344 2.14193235 6 2 C8 2.25 8 2.25 10 3 C11.72101535 5.58152302 12 6.84918025 12 10 C12.99 11.485 12.99 11.485 14 13 C7.90566886 10.51712435 4.04216377 4.96608691 0 0 Z " fill="#826D8D" transform="translate(189,111)"/>
<path d="M0 0 C0.33 0 0.66 0 1 0 C1 7.59 1 15.18 1 23 C0.01 23 -0.98 23 -2 23 C-1.9278125 22.24976563 -1.855625 21.49953125 -1.78125 20.7265625 C-1.23860966 14.74244542 -0.90917385 8.87174986 -1.0625 2.86328125 C-1 1 -1 1 0 0 Z " fill="#260C3A" transform="translate(231,213)"/>
<path d="M0 0 C0.99 0.33 1.98 0.66 3 1 C2.67 1.66 2.34 2.32 2 3 C1.34 3 0.68 3 0 3 C-0.2784375 3.56332031 -0.556875 4.12664062 -0.84375 4.70703125 C-2.0275304 7.05459575 -3.24691794 9.37617486 -4.5 11.6875 C-4.9228125 12.47511719 -5.345625 13.26273438 -5.78125 14.07421875 C-7 16 -7 16 -9 17 C-7.35544513 11.39356295 -5.66043672 6.60506555 -2 2 C-1.34 2 -0.68 2 0 2 C0 1.34 0 0.68 0 0 Z " fill="#C3C6DE" transform="translate(243,185)"/>
<path d="M0 0 C0.66 0.66 1.32 1.32 2 2 C1.01 2.495 1.01 2.495 0 3 C-0.65555119 5.52733235 -0.65555119 5.52733235 -1 8 C-1.33 7.34 -1.66 6.68 -2 6 C-2.99 6 -3.98 6 -5 6 C-5 4.68 -5 3.36 -5 2 C-7.64 2.33 -10.28 2.66 -13 3 C-9.36169862 -0.7964884 -4.95093128 -0.73594924 0 0 Z " fill="#59C6E9" transform="translate(354,161)"/>
<path d="M0 0 C4.5076467 0.53031138 7.41954788 2.25221116 11 5 C11 5.66 11 6.32 11 7 C11.99 7.33 12.98 7.66 14 8 C15.421875 9.70703125 15.421875 9.70703125 16.75 11.8125 C17.19859375 12.49957031 17.6471875 13.18664063 18.109375 13.89453125 C19.16892656 16.39934831 18.92399724 17.49281235 18 20 C17.62488281 19.24074219 17.24976563 18.48148438 16.86328125 17.69921875 C16.35152344 16.70535156 15.83976563 15.71148437 15.3125 14.6875 C14.81363281 13.70136719 14.31476563 12.71523438 13.80078125 11.69921875 C11.81928138 8.72911808 10.13272242 7.62266831 7 6 C5.97980427 5.0206121 4.97850195 4.02104551 4 3 C2.68036291 1.98199424 1.34990354 0.97751635 0 0 Z " fill="#EEEEF4" transform="translate(227,16)"/>
<path d="M0 0 C4.51242361 1.90910229 8.41042482 4.9046509 11.375 8.8125 C12.35130408 12.22956428 12.11814819 15.45555443 12 19 C11.34 19.33 10.68 19.66 10 20 C9.9175 18.80375 9.835 17.6075 9.75 16.375 C8.88807397 9.57536129 4.31043858 5.02884501 0 0 Z " fill="#523A6D" transform="translate(266,72)"/>
<path d="M0 0 C-0.53625 0.2475 -1.0725 0.495 -1.625 0.75 C-4.56424252 2.29696975 -7.25754408 4.13014369 -10 6 C-9.67 9.3 -9.34 12.6 -9 16 C-9.99 15.67 -10.98 15.34 -12 15 C-13.60725635 11.78548731 -13.05748185 8.56387464 -13 5 C-12.34 5 -11.68 5 -11 5 C-11 4.01 -11 3.02 -11 2 C-7.17679443 0.57741188 -4.08718695 -0.24042276 0 0 Z " fill="#19154D" transform="translate(302,43)"/>
<path d="M0 0 C1.32 0.33 2.64 0.66 4 1 C4 4.3 4 7.6 4 11 C1.69 9.35 -0.62 7.7 -3 6 C-1.125 1.125 -1.125 1.125 0 0 Z " fill="#18B7F5" transform="translate(77,165)"/>
<path d="M0 0 C3.43742918 -0.05802698 6.87473253 -0.09360486 10.3125 -0.125 C11.28896484 -0.14175781 12.26542969 -0.15851563 13.27148438 -0.17578125 C14.20927734 -0.18222656 15.14707031 -0.18867187 16.11328125 -0.1953125 C16.97735596 -0.20578613 17.84143066 -0.21625977 18.73168945 -0.22705078 C21 0 21 0 24 2 C23.67 3.65 23.34 5.3 23 7 C22.34 6.67 21.68 6.34 21 6 C20.67 4.35 20.34 2.7 20 1 C13.73 1 7.46 1 1 1 C0.67 2.32 0.34 3.64 0 5 C0 3.35 0 1.7 0 0 Z " fill="#9A86B7" transform="translate(310,117)"/>
<path d="M0 0 C2.79296875 0.5546875 2.79296875 0.5546875 4.8125 1.125 C4.8125 1.455 4.8125 1.785 4.8125 2.125 C1.1825 2.125 -2.4475 2.125 -6.1875 2.125 C-6.1875 2.785 -6.1875 3.445 -6.1875 4.125 C-8.15625 5.8515625 -8.15625 5.8515625 -10.6875 7.75 C-11.94046875 8.69746094 -11.94046875 8.69746094 -13.21875 9.6640625 C-13.8684375 10.14617187 -14.518125 10.62828125 -15.1875 11.125 C-15.8475 10.795 -16.5075 10.465 -17.1875 10.125 C-7.29093143 -0.76696811 -7.29093143 -0.76696811 0 0 Z " fill="#ACAFCD" transform="translate(257.1875,104.875)"/>
<path d="M0 0 C4.38462134 0.50109958 6.8000997 1.98295115 10 5 C10 5.66 10 6.32 10 7 C9.01 7 8.02 7 7 7 C7.99 8.485 7.99 8.485 9 10 C4.50486731 8.50162244 2.37078067 4.87680938 0 1 C0 0.67 0 0.34 0 0 Z " fill="#42284E" transform="translate(199,118)"/>
<path d="M0 0 C2.3125 -0.25 2.3125 -0.25 5 0 C7.65315971 2.37869491 7.98103345 3.67124653 8.1875 7.25 C8.125625 8.1575 8.06375 9.065 8 10 C6.33333333 8.33333333 4.66666667 6.66666667 3 5 C2.401875 4.443125 1.80375 3.88625 1.1875 3.3125 C0 2 0 2 0 0 Z " fill="#C4EDF6" transform="translate(259,79)"/>
<path d="M0 0 C3.08468863 0.80490367 6.03843161 1.82377426 9 3 C8.34 3.66 7.68 4.32 7 5 C6.15179688 4.68289062 5.30359375 4.36578125 4.4296875 4.0390625 C0.90522775 2.97128768 -2.20670957 2.59958921 -5.875 2.375 C-7.02742188 2.30023438 -8.17984375 2.22546875 -9.3671875 2.1484375 C-10.67042969 2.07496094 -10.67042969 2.07496094 -12 2 C-7.91952042 -0.72031972 -4.79127009 -0.51736719 0 0 Z " fill="#B0A6BF" transform="translate(360,76)"/>
<path d="M0 0 C0.99 0 1.98 0 3 0 C2.02690252 2.17075592 1.2724539 3.7609078 -0.53125 5.34375 C-2.4200861 7.47371411 -2.48399034 8.87906664 -2.6875 11.6875 C-2.78611328 12.89986328 -2.78611328 12.89986328 -2.88671875 14.13671875 C-2.92410156 14.75160156 -2.96148437 15.36648437 -3 16 C-5 14 -5 14 -5.4375 11.375 C-4.85746542 6.90044751 -3.03080656 3.36376841 0 0 Z " fill="#A190A6" transform="translate(286,195)"/>
<path d="M0 0 C10.68430493 0.03408072 10.68430493 0.03408072 13.91015625 2.40234375 C15.25 4.0625 15.25 4.0625 17 7 C16.443125 6.690625 15.88625 6.38125 15.3125 6.0625 C11.24303801 4.19274719 7.44138162 3.87310338 3 4 C3 3.34 3 2.68 3 2 C2.01 1.67 1.02 1.34 0 1 C0 0.67 0 0.34 0 0 Z " fill="#A797B8" transform="translate(130,134)"/>
<path d="M0 0 C5.42131405 2.38209254 8.89003219 6.62870513 11.375 11.9375 C11.58125 12.618125 11.7875 13.29875 12 14 C11.01 13.67 10.02 13.34 9 13 C9 12.01 9 11.02 9 10 C7.68 9.67 6.36 9.34 5 9 C4.9175 8.443125 4.835 7.88625 4.75 7.3125 C3.77389987 4.30285794 2.04811186 2.37845248 0 0 Z " fill="#B4ADC2" transform="translate(104,155)"/>
<path d="M0 0 C2 3 2 3 1.75 5 C1 7 1 7 -1 10 C-3.1640625 10.51171875 -3.1640625 10.51171875 -5.625 10.6875 C-6.44226563 10.75324219 -7.25953125 10.81898437 -8.1015625 10.88671875 C-8.72804688 10.92410156 -9.35453125 10.96148437 -10 11 C-9.38382812 10.70738281 -8.76765625 10.41476563 -8.1328125 10.11328125 C-3.6529553 7.77489425 -1.57493831 4.72481493 0 0 Z " fill="#211039" transform="translate(268,85)"/>
<path d="M0 0 C1.98 0 3.96 0 6 0 C6 0.66 6 1.32 6 2 C6.61875 2.268125 7.2375 2.53625 7.875 2.8125 C10 4 10 4 12 7 C12.07905064 9.33199388 12.08798769 11.66832622 12 14 C11.67 14 11.34 14 11 14 C10.67 12.02 10.34 10.04 10 8 C9.01 7.67 8.02 7.34 7 7 C6.67 6.01 6.34 5.02 6 4 C5.34 3.67 4.68 3.34 4 3 C4 2.34 4 1.68 4 1 C2.68 0.67 1.36 0.34 0 0 Z " fill="#746486" transform="translate(289,194)"/>
<path d="M0 0 C3.3 0 6.6 0 10 0 C9.67 0.99 9.34 1.98 9 3 C5.7 3.33 2.4 3.66 -1 4 C-0.67 2.68 -0.34 1.36 0 0 Z " fill="#24022F" transform="translate(256,178)"/>
<path d="M0 0 C0.99 0.33 1.98 0.66 3 1 C1.71034824 2.37562854 0.37310707 3.70766393 -1 5 C-1.66 5 -2.32 5 -3 5 C-3 5.66 -3 6.32 -3 7 C-5.31 8.32 -7.62 9.64 -10 11 C-9.34 9.68 -8.68 8.36 -8 7 C-7.34 7 -6.68 7 -6 7 C-5.7525 6.401875 -5.505 5.80375 -5.25 5.1875 C-3.80517427 2.65905497 -2.51719455 1.44929383 0 0 Z " fill="#B6B5D1" transform="translate(291,136)"/>
<path d="M0 0 C0.33 0 0.66 0 1 0 C0.67 5.28 0.34 10.56 0 16 C-0.66 15.67 -1.32 15.34 -2 15 C-2 11.04 -2 7.08 -2 3 C-1.34 3 -0.68 3 0 3 C0 2.01 0 1.02 0 0 Z " fill="#3B164B" transform="translate(222,73)"/>
<path d="M0 0 C0.66 0 1.32 0 2 0 C1.46324097 3.85103301 -0.11600923 5.31797587 -3.0625 7.75 C-4.16271484 8.67039063 -4.16271484 8.67039063 -5.28515625 9.609375 C-5.85105469 10.06828125 -6.41695313 10.5271875 -7 11 C-7.66 10.67 -8.32 10.34 -9 10 C-7.5484451 8.32742645 -6.08855591 6.66208242 -4.625 5 C-3.81289063 4.071875 -3.00078125 3.14375 -2.1640625 2.1875 C-1.44992187 1.465625 -0.73578125 0.74375 0 0 Z " fill="#9E8FA8" transform="translate(276,128)"/>
<path d="M0 0 C4.95476478 4.79493366 4.95476478 4.79493366 5.09765625 8.6015625 C5.08605469 9.59929687 5.07445312 10.59703125 5.0625 11.625 C5.05347656 12.62789062 5.04445312 13.63078125 5.03515625 14.6640625 C5.02355469 15.43492188 5.01195312 16.20578125 5 17 C4.67 17 4.34 17 4 17 C4 14.03 4 11.06 4 8 C3.01 8 2.02 8 1 8 C0.67 5.36 0.34 2.72 0 0 Z " fill="#563E6B" transform="translate(188,75)"/>
<path d="M0 0 C0.99 0.33 1.98 0.66 3 1 C3 1.66 3 2.32 3 3 C3.928125 3.37125 3.928125 3.37125 4.875 3.75 C7.35068687 5.20628639 7.95125002 6.37812506 9 9 C5.72766181 8.12737648 3.50912029 7.52609096 1.125 5.0625 C0 3 0 3 0 0 Z " fill="#A9A0BC" transform="translate(189,158)"/>
<path d="M0 0 C2 3 2 3 2 5 C2.99 5.66 3.98 6.32 5 7 C5 7.66 5 8.32 5 9 C5.99 9 6.98 9 8 9 C7.67 9.99 7.34 10.98 7 12 C4.36 10.35 1.72 8.7 -1 7 C-0.67 4.69 -0.34 2.38 0 0 Z " fill="#1FC2FB" transform="translate(201,34)"/>
<path d="M0 0 C0.99 0 1.98 0 3 0 C3 0.66 3 1.32 3 2 C3.66 2 4.32 2 5 2 C5 3.65 5 5.3 5 7 C2.5625 6.25 2.5625 6.25 0 5 C-0.875 2.9375 -0.875 2.9375 -1 1 C-0.67 0.67 -0.34 0.34 0 0 Z " fill="#22072F" transform="translate(98,160)"/>
<path d="M0 0 C1.98567708 0.09765625 3.97135417 0.1953125 5.95703125 0.29296875 C5.95703125 1.28296875 5.95703125 2.27296875 5.95703125 3.29296875 C2.32703125 3.29296875 -1.30296875 3.29296875 -5.04296875 3.29296875 C-2.04296875 0.29296875 -2.04296875 0.29296875 0 0 Z " fill="#21012F" transform="translate(89.04296875,157.70703125)"/>
<path d="M0 0 C2.5 1.375 2.5 1.375 5 3 C5 3.66 5 4.32 5 5 C6.32 5.66 7.64 6.32 9 7 C9 7.99 9 8.98 9 10 C7.02 9.01 5.04 8.02 3 7 C3 6.01 3 5.02 3 4 C2.34 4 1.68 4 1 4 C0.67 2.68 0.34 1.36 0 0 Z " fill="#B6B1C7" transform="translate(179,148)"/>
<path d="M0 0 C0.33 0.99 0.66 1.98 1 3 C-0.80055884 6.12728641 -2.57521952 7.85840651 -6 9 C-8.33203812 9.0777346 -10.66839059 9.08967728 -13 9 C-10.65959474 7.82979737 -8.32600701 6.6973909 -5.9375 5.625 C-3.02573321 4.0142354 -1.72995868 2.78715566 0 0 Z " fill="#BEC9DF" transform="translate(237,63)"/>
<path d="M0 0 C1.32 0 2.64 0 4 0 C4 0.66 4 1.32 4 2 C3.34 2 2.68 2 2 2 C2.33 3.32 2.66 4.64 3 6 C1.35 6.33 -0.3 6.66 -2 7 C-2.125 4.625 -2.125 4.625 -2 2 C-1.34 1.34 -0.68 0.68 0 0 Z " fill="#30DDF3" transform="translate(255,79)"/>
<path d="M0 0 C4.19162145 0.95264124 5.7207791 1.63260408 8.375 5.125 C8.91125 6.07375 9.4475 7.0225 10 8 C9.67 8.66 9.34 9.32 9 10 C5.06451569 6.93906776 2.31883213 4.50884026 0 0 Z " fill="#5A3D73" transform="translate(233,22)"/>
<path d="M0 0 C4.5065262 0.87191485 6.67668084 2.90327079 10 6 C10 6.66 10 7.32 10 8 C6.40094092 7.44449305 5.00090201 6.25112752 2.75 3.4375 C2.22921875 2.79683594 1.7084375 2.15617188 1.171875 1.49609375 C0.78515625 1.00238281 0.3984375 0.50867188 0 0 Z " fill="#584877" transform="translate(169,142)"/>
<path d="M0 0 C4.75 1.875 4.75 1.875 7 3 C7 4.65 7 6.3 7 8 C1.21538462 4.55384615 1.21538462 4.55384615 0.125 1.75 C0.08375 1.1725 0.0425 0.595 0 0 Z " fill="#9582A7" transform="translate(369,80)"/>
<path d="M0 0 C0.99 0.33 1.98 0.66 3 1 C3 1.66 3 2.32 3 3 C3.8353125 3.37125 3.8353125 3.37125 4.6875 3.75 C7.39971127 5.21606015 9.63587365 7.02989471 12 9 C11.67 9.66 11.34 10.32 11 11 C10.0925 10.21625 9.185 9.4325 8.25 8.625 C6.38276949 7.04911042 4.92380298 5.96499056 2.6875 4.9375 C1 4 1 4 0.25 1.875 C0.1675 1.25625 0.085 0.6375 0 0 Z " fill="#D4D3DE" transform="translate(167,137)"/>
<path d="M0 0 C0.6875 1.6875 0.6875 1.6875 1 4 C-0.64076492 7.44560634 -1.78512442 8.85674962 -5 11 C-5.99 10.67 -6.98 10.34 -8 10 C-7.01 9.67 -6.02 9.34 -5 9 C-3.93283296 7.20067421 -3.93283296 7.20067421 -3 5 C-2.01120795 3.32665961 -1.01351664 1.65848177 0 0 Z " fill="#CFD1E9" transform="translate(152,59)"/>
<path d="M0 0 C3.3 0.99 6.6 1.98 10 3 C9.34 4.65 8.68 6.3 8 8 C7.34 7.01 6.68 6.02 6 5 C4.34051852 3.98812105 2.67419438 2.9873454 1 2 C0.67 1.34 0.34 0.68 0 0 Z " fill="#99EFFC" transform="translate(297,51)"/>
<path d="M0 0 C3.29714793 0.32971479 4.6226839 0.6226839 7 3 C6.67 3.99 6.34 4.98 6 6 C3.36 4.68 0.72 3.36 -2 2 C-1.34 1.34 -0.68 0.68 0 0 Z " fill="#41124B" transform="translate(356,160)"/>
<path d="M0 0 C3.37462715 0.54723683 5.08235 1.0549 8 3 C9.48319041 5.2818314 10.78369112 7.56738224 12 10 C8.1673991 8.49433536 6.49555346 6.19742787 4 3 C1.87396815 1.23676495 1.87396815 1.23676495 0 0 Z " fill="#A698BB" transform="translate(361,153)"/>
<path d="M0 0 C0.33 0.66 0.66 1.32 1 2 C0.34 2 -0.32 2 -1 2 C-1.33 2.99 -1.66 3.98 -2 5 C-3.87617698 6.84499398 -5.92737609 8.3683599 -8 10 C-8.66 9.67 -9.32 9.34 -10 9 C-7.12505529 5.01930733 -4.17882671 2.56428003 0 0 Z " fill="#DBDEF0" transform="translate(242,115)"/>
<path d="M0 0 C6.75 -0.125 6.75 -0.125 9 1 C8.67 2.32 8.34 3.64 8 5 C6.68 4.67 5.36 4.34 4 4 C4 3.34 4 2.68 4 2 C2.68 1.34 1.36 0.68 0 0 Z " fill="#39B4DF" transform="translate(77,86)"/>
<path d="M0 0 C0.66 0 1.32 0 2 0 C0.76075855 4.95696581 -0.78577758 7.11658466 -5 10 C-4.38479725 6.00118212 -2.39731331 3.19641774 0 0 Z " fill="#D6DFF3" transform="translate(243,55)"/>
<path d="M0 0 C0.66 0 1.32 0 2 0 C2.33 3.63 2.66 7.26 3 11 C2.34 11 1.68 11 1 11 C0.63743142 9.5437328 0.28520207 8.08488815 -0.0625 6.625 C-0.35833984 5.40683594 -0.35833984 5.40683594 -0.66015625 4.1640625 C-1 2 -1 2 0 0 Z " fill="#1E0328" transform="translate(125,47)"/>
<path d="M0 0 C3.3 0 6.6 0 10 0 C10 0.99 10 1.98 10 3 C8.35 3.33 6.7 3.66 5 4 C5 3.01 5 2.02 5 1 C3.35 1 1.7 1 0 1 C0 0.67 0 0.34 0 0 Z " fill="#4EC2E7" transform="translate(213,25)"/>
<path d="M0 0 C0.66 0.33 1.32 0.66 2 1 C0.87548273 3.9719385 -0.22293791 6.33440687 -2 9 C-2.66 9 -3.32 9 -4 9 C-3.46930939 5.17902761 -2.50298434 2.93828597 0 0 Z " fill="#34C2EF" transform="translate(342,91)"/>
<path d="M0 0 C4.00989658 0.08049062 6.79149077 1.23739446 10.25 3.3125 C9.26 3.8075 9.26 3.8075 8.25 4.3125 C7.38375 4.003125 6.5175 3.69375 5.625 3.375 C1.57484106 2.09994996 -1.52475879 2.16680203 -5.75 2.3125 C-3.75 0.3125 -3.75 0.3125 0 0 Z " fill="#D1C7D8" transform="translate(175.75,67.6875)"/>
<path d="M0 0 C0.33 0 0.66 0 1 0 C1.33740085 1.91595482 1.66976412 3.83279722 2 5.75 C2.185625 6.81734375 2.37125 7.8846875 2.5625 8.984375 C3 12 3 12 3 16 C0.2656934 13.2656934 0.04659335 11.23006445 -0.09765625 7.421875 C-0.08025391 6.09929688 -0.08025391 6.09929688 -0.0625 4.75 C-0.05347656 3.85796875 -0.04445312 2.9659375 -0.03515625 2.046875 C-0.02355469 1.37140625 -0.01195312 0.6959375 0 0 Z " fill="#0E73DF" transform="translate(199,37)"/>
<path d="M0 0 C2 2 4 4 6 6 C5.67 6.66 5.34 7.32 5 8 C3.35 7.67 1.7 7.34 0 7 C-1.125 2.25 -1.125 2.25 0 0 Z " fill="#968AA5" transform="translate(237,267)"/>
<path d="M0 0 C0.66 0.33 1.32 0.66 2 1 C0.88200014 2.33920838 -0.24461897 3.67122556 -1.375 5 C-2.00148438 5.7425 -2.62796875 6.485 -3.2734375 7.25 C-4.12808594 8.11625 -4.12808594 8.11625 -5 9 C-5.66 9 -6.32 9 -7 9 C-5.44499019 5.18315774 -2.96404505 2.80804268 0 0 Z " fill="#9F8FA7" transform="translate(338,81)"/>
<path d="M0 0 C0.66 0 1.32 0 2 0 C3.6442351 4.93270529 2.18615592 7.54024193 0 12 C-1.31157516 9.37684968 -0.89649988 7.76966564 -0.5625 4.875 C-0.46066406 3.96492188 -0.35882813 3.05484375 -0.25390625 2.1171875 C-0.17011719 1.41851562 -0.08632812 0.71984375 0 0 Z " fill="#251E56" transform="translate(235,38)"/>
<path d="M0 0 C0.33 0 0.66 0 1 0 C1.32613618 4.67461851 0.70582788 7.16674383 -2 11 C-2.99 10.67 -3.98 10.34 -5 10 C-3.35 6.7 -1.7 3.4 0 0 Z " fill="#B6B2D6" transform="translate(115,184)"/>
<path d="M0 0 C0.33 0.99 0.66 1.98 1 3 C-2.83325617 5.70582788 -5.32538149 6.32613618 -10 6 C-6.74147635 3.8276509 -3.40755272 1.92880342 0 0 Z " fill="#BBBAD4" transform="translate(98,127)"/>
<path d="M0 0 C-0.33 1.32 -0.66 2.64 -1 4 C-2.98 4.33 -4.96 4.66 -7 5 C-7 4.34 -7 3.68 -7 3 C-4.4385343 0.70351351 -3.52032428 0 0 0 Z " fill="#2A0229" transform="translate(94,127)"/>
<path d="M0 0 C0.68359375 1.765625 0.68359375 1.765625 1 4 C-0.21484375 5.921875 -0.21484375 5.921875 -1.9375 7.75 C-2.50339844 8.36359375 -3.06929688 8.9771875 -3.65234375 9.609375 C-4.31943359 10.29773438 -4.31943359 10.29773438 -5 11 C-5.33 10.01 -5.66 9.02 -6 8 C-4.4045651 5.94272868 -2.73473712 3.94125344 -1 2 C-0.67 1.34 -0.34 0.68 0 0 Z " fill="#D2D3E8" transform="translate(105,118)"/>
<path d="M0 0 C1.32 0 2.64 0 4 0 C4.33 2.31 4.66 4.62 5 7 C2.5 5.1875 2.5 5.1875 0 3 C0 2.01 0 1.02 0 0 Z " fill="#411F56" transform="translate(184,75)"/>
<path d="M0 0 C0 0.66 0 1.32 0 2 C-0.99 2 -1.98 2 -3 2 C-3.2475 2.61875 -3.495 3.2375 -3.75 3.875 C-5.20628639 6.35068687 -6.37812506 6.95125002 -9 8 C-8.01437243 4.68470727 -7.34552581 3.25050621 -4.5 1.1875 C-2 0 -2 0 0 0 Z " fill="#A391AC" transform="translate(253,70)"/>
<path d="M0 0 C-3.51187196 2.40814077 -5.72656908 3.36629408 -10 3 C-10 2.34 -10 1.68 -10 1 C-3.375 -1.125 -3.375 -1.125 0 0 Z " fill="#1E062F" transform="translate(233,68)"/>
<path d="M0 0 C4.5073626 0.53027795 7.4539073 2.19611275 11 5 C11 5.99 11 6.98 11 8 C8.08012238 6.69108934 6.203133 5.29493021 4 3 C2.68036291 1.98199424 1.34990354 0.97751635 0 0 Z " fill="#C8C1D7" transform="translate(227,16)"/>
<path d="M0 0 C1.2065625 0.0309375 1.2065625 0.0309375 2.4375 0.0625 C-0.83551919 3.03159598 -2.94315762 3.40604794 -7.3125 3.25 C-8.29734375 3.22292969 -9.2821875 3.19585937 -10.296875 3.16796875 C-11.04453125 3.13316406 -11.7921875 3.09835937 -12.5625 3.0625 C-12.5625 2.7325 -12.5625 2.4025 -12.5625 2.0625 C-11.60537109 1.97162109 -11.60537109 1.97162109 -10.62890625 1.87890625 C-9.38947266 1.75322266 -9.38947266 1.75322266 -8.125 1.625 C-7.30128906 1.54378906 -6.47757813 1.46257812 -5.62890625 1.37890625 C-2.92478859 0.96485421 -2.90505598 0.07085502 0 0 Z " fill="#29003E" transform="translate(173.5625,282.9375)"/>
<path d="M0 0 C0.33 0.99 0.66 1.98 1 3 C-3.10457614 5.98514628 -5.97745369 6.2954439 -11 6 C-11 5.67 -11 5.34 -11 5 C-10.37351562 4.80664062 -9.74703125 4.61328125 -9.1015625 4.4140625 C-8.28429687 4.15367187 -7.46703125 3.89328125 -6.625 3.625 C-5.81289063 3.36976563 -5.00078125 3.11453125 -4.1640625 2.8515625 C-1.83540815 2.10145717 -1.83540815 2.10145717 0 0 Z " fill="#DBDBE8" transform="translate(298,210)"/>
<path d="M0 0 C1.5 1.25 1.5 1.25 3 3 C3 4.32 3 5.64 3 7 C1.02 7.33 -0.96 7.66 -3 8 C-2.505 7.05125 -2.01 6.1025 -1.5 5.125 C0.14424369 2.27721834 0.14424369 2.27721834 0 0 Z " fill="#86CAEF" transform="translate(94,92)"/>
<path d="M0 0 C0.33 0.99 0.66 1.98 1 3 C1.99 3.33 2.98 3.66 4 4 C4 4.99 4 5.98 4 7 C4.66 7.33 5.32 7.66 6 8 C3.03 7.505 3.03 7.505 0 7 C0 4.69 0 2.38 0 0 Z " fill="#09ACEF" transform="translate(252,83)"/>
<path d="M0 0 C3.68754757 0.49831724 5.60490662 1.10067643 8 4 C7.67 4.66 7.34 5.32 7 6 C4.525 5.01 4.525 5.01 2 4 C2 3.01 2 2.02 2 1 C1.34 0.67 0.68 0.34 0 0 Z " fill="#381B4D" transform="translate(266,76)"/>
<path d="M0 0 C1.32 1.32 2.64 2.64 4 4 C3.34 5.32 2.68 6.64 2 8 C1.01 7.34 0.02 6.68 -1 6 C-0.67 4.02 -0.34 2.04 0 0 Z " fill="#4BEBF6" transform="translate(263,85)"/>
<path d="M0 0 C0.66 0 1.32 0 2 0 C0.84826645 2.46800047 -0.04783565 4.04783565 -2 6 C-2.99 6 -3.98 6 -5 6 C-4.34 4.68 -3.68 3.36 -3 2 C-2.01 2 -1.02 2 0 2 C0 1.34 0 0.68 0 0 Z " fill="#2D1848" transform="translate(277,147)"/>
<path d="M0 0 C0.66 0 1.32 0 2 0 C2.474375 1.11375 2.94875 2.2275 3.4375 3.375 C4.25306463 5.26710994 5.07856355 7.15712709 6 9 C3.53199953 7.84826645 1.95216435 6.95216435 0 5 C-0.125 2.375 -0.125 2.375 0 0 Z " fill="#12BAFC" transform="translate(65,94)"/>
<path d="M0 0 C2.97 0.33 5.94 0.66 9 1 C7.515 2.485 7.515 2.485 6 4 C3.3125 3.6875 3.3125 3.6875 1 3 C0.67 2.01 0.34 1.02 0 0 Z " fill="#ADF3FE" transform="translate(134,50)"/>
<path d="M0 0 C1.99097846 2.98646769 2.94124926 5.59687262 4 9 C3.01 9 2.02 9 1 9 C0.67 6.03 0.34 3.06 0 0 Z " fill="#18093E" transform="translate(331,177)"/>
<path d="M0 0 C0.99 0 1.98 0 3 0 C3 1.65 3 3.3 3 5 C0.69 4.34 -1.62 3.68 -4 3 C-2.68 2.67 -1.36 2.34 0 2 C0 1.34 0 0.68 0 0 Z " fill="#231341" transform="translate(95,159)"/>
<path d="M0 0 C0.99 0 1.98 0 3 0 C3 0.99 3 1.98 3 3 C-0.96 3 -4.92 3 -9 3 C-9 2.67 -9 2.34 -9 2 C-6.03 2 -3.06 2 0 2 C0 1.34 0 0.68 0 0 Z " fill="#24012C" transform="translate(359,130)"/>
<path d="M0 0 C2.9375 0.75 2.9375 0.75 6 2 C6.875 4.125 6.875 4.125 7 6 C2.32307692 4.52307692 2.32307692 4.52307692 0.6875 1.875 C0.460625 1.25625 0.23375 0.6375 0 0 Z " fill="#9F8DA5" transform="translate(333,124)"/>
<path d="M0 0 C0.66 0 1.32 0 2 0 C2.6875 2.3125 2.6875 2.3125 3 5 C1.5625 6.8125 1.5625 6.8125 0 8 C0 5.36 0 2.72 0 0 Z " fill="#230122" transform="translate(59,97)"/>
<path d="M0 0 C1.65 0.33 3.3 0.66 5 1 C4.01 1.495 4.01 1.495 3 2 C3 2.66 3 3.32 3 4 C1.35 4 -0.3 4 -2 4 C-1.34 2.68 -0.68 1.36 0 0 Z " fill="#E6E5F6" transform="translate(360,88)"/>
<path d="M0 0 C0.99 0.33 1.98 0.66 3 1 C3 1.99 3 2.98 3 4 C1.35 4.33 -0.3 4.66 -2 5 C-2 3.68 -2 2.36 -2 1 C-1.34 0.67 -0.68 0.34 0 0 Z " fill="#15F2FD" transform="translate(173,81)"/>
<path d="M0 0 C0.99 0 1.98 0 3 0 C3 0.66 3 1.32 3 2 C3.66 2 4.32 2 5 2 C5.66 3.65 6.32 5.3 7 7 C3.17053157 5.54744301 1.87949705 3.57104439 0 0 Z " fill="#492E60" transform="translate(177,150)"/>
<path d="M0 0 C2.475 0.99 2.475 0.99 5 2 C4.67 3.65 4.34 5.3 4 7 C2 6 2 6 0.875 2.9375 C0.58625 1.968125 0.2975 0.99875 0 0 Z " fill="#6C4F74" transform="translate(329,117)"/>
<path d="M0 0 C2.475 0.495 2.475 0.495 5 1 C5 1.99 5 2.98 5 4 C3.0625 3.6875 3.0625 3.6875 1 3 C0.67 2.01 0.34 1.02 0 0 Z " fill="#D1EDF5" transform="translate(176,79)"/>
</svg>
